<svg xmlns="http://www.w3.org/2000/svg" version="1.1" xmlns:xlink="http://www.w3.org/1999/xlink" xmlns:svgjs="http://svgjs.dev/svgjs" width="3840" height="2160" preserveAspectRatio="none" viewBox="0 0 3840 2160"><g mask="url(&quot;#SvgjsMask1024&quot;)" fill="none"><rect width="3840" height="2160" x="0" y="0" fill="rgba(231, 223, 213, 1)"></rect><path d="M-17.99 1518.25C434.88 1502.04 769.52 771.13 1639.21 783.85 2508.9 796.57 2707.42 2416.44 3296.41 2576.13" stroke="rgba(172, 119, 177, 1)" stroke-width="2"></path><path d="M-616.81 1263.91C-220.58 1254.6 261.71 682.83 865.72 702.31 1469.73 721.79 1265.61 1966.27 1606.99 2211.56" stroke="rgba(172, 119, 177, 1)" stroke-width="2"></path><path d="M-10.12 692.04C478.83 723.14 928.38 1560.11 1703.76 1642.44 2479.14 1724.77 2271.42 2396.46 2560.7 2458.02" stroke="rgba(172, 119, 177, 1)" stroke-width="2"></path><path d="M-520.47 1687.01C-83.08 1682.49 312.38 1210.48 1163.42 1211.81 2014.47 1213.14 2362.49 2149.37 2847.32 2183.38" stroke="rgba(172, 119, 177, 1)" stroke-width="2"></path><path d="M-704.5 1437.87C-259.77 1430.57 301.84 857.57 983.69 876.27 1665.53 894.97 1451.27 2212.23 1827.78 2453.64" stroke="rgba(172, 119, 177, 1)" stroke-width="2"></path></g><defs><mask id="SvgjsMask1024"><rect width="3840" height="2160" fill="#ffffff"></rect></mask></defs></svg>