<?xml version="1.0" standalone="no"?>
<!DOCTYPE svg PUBLIC "-//W3C//DTD SVG 1.1//EN" "http://www.w3.org/Graphics/SVG/1.1/DTD/svg11.dtd" >
<svg>
<metadata>
Created by FontForge 20090622 at Fri Feb 22 20:59:58 2019
 By ffonts
Copyright \(c\) 2017 by Alexander Slobzheninov. All rights reserved.
</metadata>
<defs>
<font id="Octarine-Light" horiz-adv-x="592" >
  <font-face 
    font-family="Octarine"
    font-weight="300"
    font-stretch="normal"
    units-per-em="1000"
    panose-1="0 0 0 0 0 0 0 0 0 0"
    ascent="800"
    descent="-200"
    x-height="503"
    cap-height="703"
    bbox="-91 -270 1393 1120"
    underline-thickness="50"
    underline-position="-50"
    stemh="54"
    stemv="62"
    unicode-range="U+000D-U+F6C3"
  />
<missing-glyph horiz-adv-x="333" 
 />
    <glyph glyph-name=".notdef" horiz-adv-x="333" 
 />
    <glyph glyph-name="NULL" horiz-adv-x="709" 
d="M87 703h536v-703h-536v703zM144 651v-599h421v599h-421z" />
    <glyph glyph-name="NULL" horiz-adv-x="709" 
d="M87 703h536v-703h-536v703zM144 651v-599h421v599h-421z" />
    <glyph glyph-name="CR" unicode="&#xd;" horiz-adv-x="0" 
 />
    <glyph glyph-name="space" unicode=" " horiz-adv-x="300" 
 />
    <glyph glyph-name="exclam" unicode="!" horiz-adv-x="184" 
d="M47 33c0 26 18 44 45 44s45 -18 45 -44c0 -27 -18 -45 -45 -45s-45 18 -45 45zM70 260l-12 260v183h68v-183l-13 -260h-43z" />
    <glyph glyph-name="quotedbl" unicode="&#x22;" horiz-adv-x="290" 
d="M47 563v140h50v-140l-4 -173h-41zM193 563v140h51v-140l-5 -173h-42z" />
    <glyph glyph-name="numbersign" unicode="#" horiz-adv-x="1003" 
d="M490 25l61 231h-178l-67 -256h-48v25l60 231h-241v49h254l39 148h-243v50h256l61 230h49v-25l-55 -205h178l61 230h49v-25l-55 -205h256v-50h-269l-39 -148h258v-49h-271l-67 -256h-49v25zM425 453l-39 -148h178l39 148h-178z" />
    <glyph glyph-name="dollar" unicode="$" horiz-adv-x="658" 
d="M608 202c1 -128 -107 -219 -259 -226v-106h-48v106c-128 10 -228 82 -249 184v35h61c8 -93 96 -158 214 -160c125 -1 214 66 214 158c1 224 -492 34 -492 323c0 124 102 209 252 212v112h48v-114c120 -12 212 -76 229 -165v-34h-60c-7 83 -91 141 -206 141
c-117 0 -196 -59 -196 -146c0 -226 492 -39 492 -320z" />
    <glyph glyph-name="percent" unicode="%" horiz-adv-x="959" 
d="M725 223c118 0 197 -79 197 -196c0 -118 -79 -197 -197 -197c-116 0 -195 79 -195 197c0 117 79 196 195 196zM725 171c-85 0 -143 -58 -143 -144s58 -144 143 -144c87 0 145 58 145 144s-58 144 -145 144zM218 -169l481 902h42v-31l-481 -902h-42v31zM233 703
c118 0 197 -79 197 -196c0 -118 -79 -197 -197 -197c-117 0 -196 79 -196 197c0 117 79 196 196 196zM233 650c-86 0 -144 -57 -144 -143c0 -87 58 -145 144 -145s144 58 144 145c0 86 -58 143 -144 143z" />
    <glyph glyph-name="ampersand" unicode="&#x26;" horiz-adv-x="707" 
d="M669 31v-31h-57l-95 86c-67 -69 -148 -111 -237 -111c-116 0 -233 71 -233 199c0 111 70 165 154 202c-41 44 -79 101 -79 169c0 102 86 175 204 175c116 0 199 -70 199 -165c0 -117 -112 -155 -220 -195l211 -191c34 48 62 106 82 171h54v-30c-25 -67 -57 -127 -95 -178
zM287 35c71 0 136 32 190 88l-235 213c-75 -33 -135 -75 -135 -160c0 -93 94 -141 180 -141zM181 546c-1 -54 35 -101 81 -146c103 38 204 66 204 155c0 61 -59 105 -142 105c-82 0 -142 -47 -143 -114z" />
    <glyph glyph-name="quotesingle" unicode="'" horiz-adv-x="144" 
d="M47 563v140h50v-140l-4 -173h-41z" />
    <glyph glyph-name="parenleft" unicode="(" horiz-adv-x="294" 
d="M57 278c0 180 63 364 158 459h42v-32c-85 -95 -143 -266 -143 -427c0 -164 58 -335 143 -427v-31h-42c-95 95 -158 279 -158 458z" />
    <glyph glyph-name="parenright" unicode=")" horiz-adv-x="294" 
d="M237 278c0 -179 -63 -363 -158 -458h-42v31c86 92 143 263 143 427c0 161 -57 332 -143 427v32h42c95 -95 158 -279 158 -459z" />
    <glyph glyph-name="asterisk" unicode="*" horiz-adv-x="499" 
d="M274 263h-49l1 180l-154 -91l-25 42l156 89l-156 89l25 42l154 -91l-1 180h49l-1 -180l155 91l25 -42l-157 -89l157 -89l-25 -42l-155 91z" />
    <glyph glyph-name="plus" unicode="+" horiz-adv-x="583" 
d="M57 286v57h203v187h64v-187h203v-57h-203v-196h-64v196h-203z" />
    <glyph glyph-name="comma" unicode="," horiz-adv-x="193" 
d="M52 33c0 26 18 44 45 44c30 0 50 -24 50 -60c0 -65 -29 -124 -67 -141h-33v16c28 13 48 54 48 96c-26 0 -43 18 -43 45z" />
    <glyph glyph-name="hyphen" unicode="-" horiz-adv-x="523" 
d="M57 284v57h410v-57h-410z" />
    <glyph glyph-name="period" unicode="." horiz-adv-x="184" 
d="M47 34c0 26 18 44 45 44s45 -18 45 -44c0 -27 -18 -46 -45 -46s-45 19 -45 46z" />
    <glyph glyph-name="slash" unicode="/" horiz-adv-x="386" 
d="M27 -197l286 908h46v-33l-287 -908h-45v33z" />
    <glyph glyph-name="zero" unicode="0" horiz-adv-x="696" 
d="M55 352c0 218 120 376 293 376c174 0 294 -158 294 -376c0 -219 -120 -377 -294 -377c-173 0 -293 158 -293 377zM121 352c0 -184 92 -317 227 -317s227 133 227 317c0 183 -92 316 -227 316s-227 -133 -227 -316z" />
    <glyph glyph-name="one" unicode="1" horiz-adv-x="330" 
d="M20 489l172 214h52v-703h-67v600l-132 -166h-25v55z" />
    <glyph glyph-name="two" unicode="2" horiz-adv-x="558" 
d="M281 728c141 0 227 -91 227 -221c0 -175 -199 -344 -327 -444h315v-63h-436v39c137 111 383 306 383 464c0 98 -62 168 -166 168c-102 0 -161 -75 -169 -179h-58v36c21 117 105 200 231 200z" />
    <glyph glyph-name="three" unicode="3" horiz-adv-x="598" 
d="M299 728c121 0 226 -68 226 -188c0 -91 -69 -148 -168 -165c122 -19 189 -84 189 -195c0 -119 -106 -205 -244 -205c-140 0 -240 77 -250 185v33h59c0 -93 74 -161 188 -161c105 0 182 68 182 157c0 117 -111 157 -236 157v58c138 0 220 54 220 137
c0 76 -70 130 -166 130c-88 0 -169 -48 -169 -131h-58v37c13 88 109 151 227 151z" />
    <glyph glyph-name="four" unicode="4" horiz-adv-x="582" 
d="M454 703v-458h88v-60h-88v-185h-67v185h-363v43l332 475h98zM387 245v402l-281 -402h281z" />
    <glyph glyph-name="five" unicode="5" horiz-adv-x="615" 
d="M140 295h-67l40 408h392v-60h-337l-24 -246c36 43 99 71 174 71c140 0 242 -106 242 -251c0 -140 -109 -242 -261 -242c-120 0 -223 78 -244 186v34h59c9 -96 87 -166 185 -166c113 0 194 78 194 187c0 116 -77 199 -184 199c-89 0 -160 -50 -169 -120z" />
    <glyph glyph-name="six" unicode="6" horiz-adv-x="566" 
d="M342 703h55v-34l-182 -232c27 13 58 21 93 21c129 0 224 -98 224 -235c0 -144 -103 -248 -246 -248c-146 0 -251 102 -251 243c0 52 22 116 51 155zM288 409c-108 0 -187 -78 -187 -186c0 -111 79 -191 187 -191c103 0 177 80 177 191c0 108 -74 186 -177 186z" />
    <glyph glyph-name="seven" unicode="7" horiz-adv-x="484" 
d="M396 646h-391v57h465v-40l-280 -663h-52v35z" />
    <glyph glyph-name="eight" unicode="8" horiz-adv-x="607" 
d="M303 729c134 0 232 -77 231 -186c0 -81 -53 -148 -129 -167c93 -19 159 -98 159 -193c1 -121 -109 -207 -261 -207c-151 0 -261 87 -261 207c0 95 65 174 159 193c-76 19 -129 86 -129 166c0 109 97 187 231 187zM303 343c-113 0 -194 -65 -194 -154
c0 -90 81 -155 194 -155s195 65 195 155c-1 89 -82 154 -195 154zM303 668c-98 0 -169 -54 -169 -131s71 -133 169 -133s170 56 169 133c0 77 -71 131 -169 131z" />
    <glyph glyph-name="nine" unicode="9" horiz-adv-x="566" 
d="M229 0h-55v34l182 232c-27 -13 -58 -21 -93 -21c-129 0 -224 98 -224 235c0 144 103 248 246 248c146 0 251 -102 251 -243c0 -52 -22 -116 -51 -155zM283 294c108 0 187 78 187 186c0 111 -79 191 -187 191c-103 0 -177 -80 -177 -191c0 -108 74 -186 177 -186z" />
    <glyph glyph-name="colon" unicode=":" horiz-adv-x="184" 
d="M47 34c0 26 18 44 45 44s45 -18 45 -44c0 -27 -18 -46 -45 -46s-45 19 -45 46zM47 423c0 26 18 44 45 44s45 -18 45 -44c0 -27 -18 -45 -45 -45s-45 18 -45 45z" />
    <glyph glyph-name="semicolon" unicode=";" horiz-adv-x="194" 
d="M51 423c0 26 19 44 46 44c26 0 45 -18 45 -44c0 -27 -19 -45 -45 -45c-27 0 -46 18 -46 45zM53 33c0 26 18 44 45 44c30 0 50 -24 50 -60c0 -65 -29 -124 -67 -141h-33v16c28 13 48 54 48 96c-26 0 -43 18 -43 45z" />
    <glyph glyph-name="less" unicode="&#x3c;" horiz-adv-x="453" 
d="M24 219v65l360 219h30v-43l-344 -208l344 -209v-43h-30z" />
    <glyph glyph-name="equal" unicode="=" horiz-adv-x="623" 
d="M77 158v57h470v-57h-470zM77 413v57h470v-57h-470z" />
    <glyph glyph-name="greater" unicode="&#x3e;" horiz-adv-x="453" 
d="M429 284v-65l-360 -219h-30v43l343 209l-343 208v43h30z" />
    <glyph glyph-name="question" unicode="?" horiz-adv-x="597" 
d="M240 33c0 26 18 44 45 44s45 -18 45 -44c0 -27 -18 -45 -45 -45s-45 18 -45 45zM256 173v163h41c116 0 190 63 191 162c0 101 -88 170 -195 170c-99 0 -177 -70 -190 -171h-56v36c25 117 123 195 248 195c160 0 259 -105 260 -229c0 -127 -99 -216 -242 -216v-110h-57z
" />
    <glyph glyph-name="at" unicode="@" horiz-adv-x="1009" 
d="M118 260c0 -220 156 -379 372 -379c57 0 118 20 145 48h25v-54c-39 -32 -112 -49 -170 -49c-247 0 -433 184 -433 434c0 252 175 435 448 435s448 -183 448 -435c0 -153 -63 -264 -158 -264c-66 0 -115 54 -116 144c-26 -57 -104 -99 -189 -99c-123 0 -208 94 -208 219
c0 128 93 220 223 220s223 -91 223 -217v-115c0 -65 29 -100 67 -100c60 0 97 89 97 212c0 220 -149 380 -387 380s-387 -160 -387 -380zM505 425c-94 0 -161 -70 -161 -165s67 -163 161 -163c93 0 161 68 161 163s-68 165 -161 165z" />
    <glyph glyph-name="A" unicode="A" horiz-adv-x="681" 
d="M293 703h95l253 -664v-39h-57l-57 149h-374l-57 -149h-57v39zM341 643l-170 -440h339z" />
    <glyph glyph-name="B" unicode="B" horiz-adv-x="730" 
d="M87 703h355c124 0 214 -75 214 -180c0 -72 -50 -132 -120 -149c82 -18 140 -89 140 -174c0 -116 -101 -200 -238 -200h-351v703zM430 343h-276v-283h276c104 0 179 60 179 143c0 81 -75 140 -179 140zM154 643v-239h281c90 0 154 49 154 119s-64 120 -154 120h-281z" />
    <glyph glyph-name="C" unicode="C" horiz-adv-x="816" 
d="M708 221h53v-39c-41 -120 -181 -207 -332 -207c-217 0 -374 159 -374 377s157 376 374 376c151 0 290 -90 332 -216v-39h-55c-25 113 -141 193 -275 195c-180 1 -310 -131 -310 -316c0 -184 130 -317 310 -317c132 0 248 78 277 186z" />
    <glyph glyph-name="D" unicode="D" horiz-adv-x="762" 
d="M707 352c0 -211 -164 -352 -410 -352h-210v703h210c246 0 410 -140 410 -351zM297 643h-143v-583h143c206 0 344 114 344 292c0 177 -138 291 -344 291z" />
    <glyph glyph-name="E" unicode="E" horiz-adv-x="624" 
d="M575 0h-488v703h478v-60h-413v-249h373v-58h-373v-276h423v-60z" />
    <glyph glyph-name="F" unicode="F" horiz-adv-x="558" 
d="M154 0h-67v703h437v-60h-370v-291h311v-57h-311v-295z" />
    <glyph glyph-name="G" unicode="G" horiz-adv-x="851" 
d="M730 329h-301v58h366c15 -239 -138 -412 -364 -412c-219 0 -376 159 -376 377s157 376 376 376c139 0 270 -78 315 -187v-38h-53c-33 96 -142 165 -262 165c-180 1 -310 -132 -310 -316c0 -183 130 -315 310 -317c172 -2 298 122 299 294z" />
    <glyph glyph-name="H" unicode="H" horiz-adv-x="715" 
d="M154 703v-306h408v306h67v-703h-67v336h-408v-336h-67v703h67z" />
    <glyph glyph-name="I" unicode="I" horiz-adv-x="240" 
d="M87 0v703h67v-703h-67z" />
    <glyph glyph-name="J" unicode="J" horiz-adv-x="435" 
d="M292 703h67v-496c0 -133 -87 -227 -205 -227c-36 0 -86 8 -125 20v59c39 -11 85 -19 114 -19c87 -1 149 70 149 173v490z" />
    <glyph glyph-name="K" unicode="K" horiz-adv-x="585" 
d="M154 399l336 304h52v-36l-331 -295l341 -336v-36h-54l-344 343v-343h-67v703h67v-304z" />
    <glyph glyph-name="L" unicode="L" horiz-adv-x="541" 
d="M87 703h67v-643h373v-60h-440v703z" />
    <glyph glyph-name="M" unicode="M" horiz-adv-x="955" 
d="M87 703h88l302 -614l302 614h90v-703h-66v607l-298 -607h-55l-298 605v-605h-65v703z" />
    <glyph glyph-name="N" unicode="N" horiz-adv-x="766" 
d="M679 703v-703h-80l-449 622v-622h-63v703h80l448 -622v622h64z" />
    <glyph glyph-name="O" unicode="O" horiz-adv-x="862" 
d="M55 352c0 219 156 376 376 376s377 -157 377 -376c0 -220 -157 -377 -377 -377s-376 157 -376 377zM121 352c0 -184 130 -316 310 -317c180 0 310 133 310 317c0 183 -130 316 -310 316s-310 -133 -310 -316z" />
    <glyph glyph-name="P" unicode="P" horiz-adv-x="658" 
d="M347 230h-195v-230h-65v703h261c162 0 276 -97 276 -236s-114 -237 -277 -237zM340 643h-188v-352h188c129 0 218 72 217 176c0 104 -89 176 -217 176z" />
    <glyph glyph-name="Q" unicode="Q" horiz-adv-x="856" 
d="M51 352c0 219 157 376 377 376s376 -157 376 -376c0 -133 -57 -242 -150 -308l119 -138v-36h-49l-123 142c-51 -23 -109 -37 -173 -37c-220 0 -377 157 -377 377zM118 352c0 -184 130 -316 310 -317c179 0 309 133 309 317c0 183 -129 316 -309 316s-310 -133 -310 -316z
" />
    <glyph glyph-name="R" unicode="R" horiz-adv-x="696" 
d="M391 703c148 0 251 -89 251 -218c0 -102 -73 -185 -179 -205l159 -247v-33h-56l-171 270h-241v-270h-67v703h304zM154 643v-312h233c111 0 188 63 188 154c0 97 -77 158 -188 158h-233z" />
    <glyph glyph-name="S" unicode="S" horiz-adv-x="658" 
d="M330 -25c-141 0 -255 76 -278 185v35h61c8 -93 96 -158 214 -160c125 -1 214 66 214 158c1 224 -492 34 -492 323c0 126 106 212 260 212c139 0 250 -68 269 -167v-34h-60c-7 83 -91 141 -206 141c-117 0 -196 -59 -196 -146c0 -226 492 -39 492 -320
c1 -133 -116 -227 -278 -227z" />
    <glyph glyph-name="T" unicode="T" horiz-adv-x="577" 
d="M15 703h547v-60h-240v-643h-67v643h-240v60z" />
    <glyph glyph-name="U" unicode="U" horiz-adv-x="712" 
d="M569 703h66v-419c0 -182 -114 -309 -279 -309s-279 127 -279 309v419h67v-418c0 -141 83 -250 212 -250c128 0 213 103 213 250v418z" />
    <glyph glyph-name="V" unicode="V" horiz-adv-x="714" 
d="M617 703h58v-38l-269 -665h-97l-270 665v38h58l260 -648z" />
    <glyph glyph-name="W" unicode="W" horiz-adv-x="1195" 
d="M1149 703v-39l-237 -664h-91l-223 618l-223 -618h-92l-237 664v39h57l228 -638l231 638h72l231 -638l228 638h56z" />
    <glyph glyph-name="X" unicode="X" horiz-adv-x="687" 
d="M102 703l237 -291l246 291h53v-38l-250 -293l260 -335v-37h-54l-255 330l-245 -330h-55v37l251 335l-241 293v38h53z" />
    <glyph glyph-name="Y" unicode="Y" horiz-adv-x="639" 
d="M87 703l233 -384l232 384h53v-38l-251 -408v-257h-67v257l-253 408v38h53z" />
    <glyph glyph-name="Z" unicode="Z" horiz-adv-x="687" 
d="M54 703h580v-44l-495 -602h505v-57h-600v44l497 602h-487v57z" />
    <glyph glyph-name="bracketleft" unicode="[" horiz-adv-x="448" 
d="M412 -180h-325v917h325v-50h-265v-818h265v-49z" />
    <glyph glyph-name="backslash" unicode="\" horiz-adv-x="386" 
d="M313 -230l-286 908v33h45l287 -908v-33h-46z" />
    <glyph glyph-name="bracketright" unicode="]" horiz-adv-x="448" 
d="M362 -180h-325v49h264v818h-264v50h325v-917z" />
    <glyph glyph-name="asciicircum" unicode="^" horiz-adv-x="560" 
d="M245 703h70l198 -288v-32h-43l-190 278l-190 -278h-43v32z" />
    <glyph glyph-name="underscore" unicode="_" horiz-adv-x="500" 
d="M0 -54v54h500v-54h-500z" />
    <glyph glyph-name="grave" unicode="`" horiz-adv-x="257" 
d="M210 595v-25h-39l-124 137v26h43z" />
    <glyph glyph-name="a" unicode="a" horiz-adv-x="641" 
d="M313 523c156 0 267 -113 267 -271v-252h-59v96c-40 -72 -115 -116 -208 -116c-157 0 -266 111 -266 272c0 158 110 271 266 271zM313 466c-119 0 -204 -90 -204 -214c0 -125 85 -215 204 -215s205 90 205 215c0 124 -86 214 -205 214z" />
    <glyph glyph-name="b" unicode="b" horiz-adv-x="645" 
d="M67 733h62v-323c39 69 113 113 203 113c154 0 266 -114 266 -271c0 -158 -112 -272 -267 -272c-154 0 -264 112 -264 267v486zM536 252c1 124 -86 214 -204 214c-119 0 -205 -90 -205 -214c0 -125 86 -215 205 -215c117 0 204 90 204 215z" />
    <glyph glyph-name="c" unicode="c" 
d="M545 378v-31h-49c-24 70 -100 121 -182 121c-119 0 -205 -91 -205 -216c0 -126 86 -217 205 -217c82 0 158 51 183 122h48v-35c-33 -83 -129 -142 -233 -142c-155 0 -265 113 -265 272c0 158 111 271 267 271c104 0 200 -60 231 -145z" />
    <glyph glyph-name="d" unicode="d" horiz-adv-x="645" 
d="M516 733h62v-486c0 -155 -110 -267 -264 -267c-155 0 -267 114 -267 272c0 157 111 271 266 271c90 0 163 -44 203 -113v323zM109 252c0 -125 86 -215 204 -215c119 0 204 90 205 215c0 124 -86 214 -205 214s-205 -90 -204 -214z" />
    <glyph glyph-name="e" unicode="e" horiz-adv-x="617" 
d="M307 523c152 0 263 -110 263 -264c0 -20 -2 -46 -6 -64h-448c23 -95 96 -158 191 -158c76 0 151 39 178 93h53v-28c-36 -71 -133 -122 -233 -122c-149 0 -258 118 -258 280c0 153 109 263 260 263zM109 260v-12h397c7 124 -81 218 -202 218c-114 0 -195 -87 -195 -206z
" />
    <glyph glyph-name="f" unicode="f" horiz-adv-x="337" 
d="M29 451v52h85v113c0 82 50 137 125 137c28 0 59 -4 80 -11v-55c-20 6 -47 9 -67 9c-45 -1 -76 -35 -76 -85v-108h134v-52h-134v-451h-62v451h-85z" />
    <glyph glyph-name="g" unicode="g" horiz-adv-x="645" 
d="M313 523c154 0 265 -113 265 -271v-254c0 -145 -107 -248 -256 -248c-129 0 -240 79 -264 189v31h58c12 -94 96 -163 204 -163c114 0 196 81 196 193v102c-42 -72 -116 -119 -206 -119c-153 0 -263 114 -263 269c0 158 111 271 266 271zM313 466
c-119 0 -204 -90 -204 -214c0 -123 86 -211 204 -211c120 0 204 86 204 211c0 124 -84 214 -204 214z" />
    <glyph glyph-name="h" unicode="h" horiz-adv-x="593" 
d="M308 523c130 0 218 -92 218 -223v-300h-62v288c0 105 -66 178 -163 178c-95 0 -162 -69 -162 -169v-297h-62v733h62v-305c33 59 93 95 169 95z" />
    <glyph glyph-name="i" unicode="i" horiz-adv-x="224" 
d="M81 0v503h62v-503h-62zM67 647c0 26 18 45 45 45s45 -19 45 -45c0 -27 -18 -45 -45 -45s-45 18 -45 45z" />
    <glyph glyph-name="j" unicode="j" horiz-adv-x="210" 
d="M67 503h62v-590c0 -82 -50 -136 -126 -136c-28 0 -61 4 -81 11v55c20 -6 47 -9 67 -9c47 1 78 35 78 85v584zM53 647c0 26 18 45 45 45s45 -19 45 -45c0 -27 -18 -45 -45 -45s-45 18 -45 45z" />
    <glyph glyph-name="k" unicode="k" horiz-adv-x="476" 
d="M139 288l247 215h51v-34l-243 -207l253 -229v-33h-53l-255 234v-234h-62v733h62v-445z" />
    <glyph glyph-name="l" unicode="l" horiz-adv-x="215" 
d="M77 0v733h62v-733h-62z" />
    <glyph glyph-name="m" unicode="m" horiz-adv-x="914" 
d="M137 503v-68c30 55 86 88 157 88c85 0 152 -45 177 -114c28 69 93 114 178 114c117 0 198 -90 198 -218v-305h-62v305c0 95 -58 161 -142 161c-89 0 -151 -66 -151 -161v-305h-62v305c0 97 -56 161 -141 161c-90 0 -150 -64 -150 -161v-305h-62v503h60z" />
    <glyph glyph-name="n" unicode="n" 
d="M308 523c130 0 218 -92 218 -225v-298h-62v288c0 105 -65 178 -162 178c-95 0 -163 -69 -163 -169v-297h-62v503h62v-76c32 60 93 96 169 96z" />
    <glyph glyph-name="o" unicode="o" horiz-adv-x="627" 
d="M580 252c0 -159 -111 -272 -267 -272s-266 113 -266 272c0 158 110 271 266 271s267 -113 267 -271zM518 252c0 124 -86 214 -205 214s-204 -90 -204 -214c0 -125 85 -215 204 -215s205 90 205 215z" />
    <glyph glyph-name="p" unicode="p" horiz-adv-x="645" 
d="M129 -230h-62v487c0 154 110 266 264 266c155 0 267 -114 267 -271c0 -158 -112 -272 -266 -272c-90 0 -164 44 -203 113v-323zM536 252c-1 124 -87 214 -204 214c-119 0 -205 -90 -205 -214c0 -125 86 -215 205 -215c118 0 205 90 204 215z" />
    <glyph glyph-name="q" unicode="q" horiz-adv-x="645" 
d="M578 -230h-62v323c-40 -69 -113 -113 -203 -113c-155 0 -266 114 -266 272c0 157 112 271 267 271c154 0 264 -112 264 -266v-487zM109 252c-1 -125 85 -215 204 -215s205 90 205 215c-1 124 -86 214 -205 214c-118 0 -204 -90 -204 -214z" />
    <glyph glyph-name="r" unicode="r" horiz-adv-x="421" 
d="M279 522c42 0 91 -16 113 -39v-54h-34c-14 22 -51 37 -88 37c-79 0 -131 -74 -131 -181v-285h-62v503h60v-77c28 60 78 96 142 96z" />
    <glyph glyph-name="s" unicode="s" horiz-adv-x="504" 
d="M254 -20c-99 0 -183 55 -206 133v32h56c11 -64 73 -108 152 -108c81 0 142 44 142 107c0 133 -353 27 -353 231c0 87 80 148 199 148c100 0 180 -41 193 -100v-30h-55c-3 44 -59 73 -137 73c-85 0 -140 -37 -140 -91c0 -133 354 -34 353 -228c0 -99 -87 -167 -204 -167z
" />
    <glyph glyph-name="t" unicode="t" horiz-adv-x="349" 
d="M25 451v52h85v110h62v-110h133v-52h-133v-329c0 -50 30 -84 76 -85c20 0 46 4 66 10v-55c-21 -7 -52 -12 -80 -12c-74 0 -124 55 -124 137v334h-85z" />
    <glyph glyph-name="u" unicode="u" 
d="M284 -20c-130 0 -218 92 -218 225v298h62v-288c0 -105 65 -178 162 -178c95 0 163 69 163 169v297h62v-503h-62v76c-32 -60 -93 -96 -169 -96z" />
    <glyph glyph-name="v" unicode="v" horiz-adv-x="536" 
d="M74 503l194 -453l194 453h51v-40l-202 -463h-86l-201 463v40h50z" />
    <glyph glyph-name="w" unicode="w" horiz-adv-x="885" 
d="M83 503l167 -439l160 439h63l163 -439l167 439h52v-33l-179 -470h-78l-156 432l-156 -432h-78l-179 470v33h54z" />
    <glyph glyph-name="x" unicode="x" horiz-adv-x="505" 
d="M39 470v33h51l163 -203l162 203h51v-33l-168 -208l178 -229v-33h-53l-170 221l-171 -221h-53v33l179 229z" />
    <glyph glyph-name="y" unicode="y" horiz-adv-x="545" 
d="M56 -162c18 -5 42 -9 56 -9c62 0 103 69 148 173l-231 471v30h54l207 -425l172 425h53v-30l-194 -478c-45 -109 -104 -217 -201 -217c-19 0 -47 4 -64 10v50z" />
    <glyph glyph-name="z" unicode="z" horiz-adv-x="517" 
d="M44 503h429v-40l-342 -406h352v-57h-449v41l345 405h-335v57z" />
    <glyph glyph-name="braceleft" unicode="{" horiz-adv-x="365" 
d="M329 -180h-82c-65 0 -109 44 -109 109v260c0 37 -24 61 -61 61h-10v66h10c37 0 61 25 61 61v251c0 65 44 109 109 109h82v-50h-60c-42 0 -70 -28 -70 -70v-247c0 -48 -33 -83 -81 -86l-10 -1l10 -1c48 -2 81 -37 81 -86v-257c0 -42 28 -70 70 -70h60v-49z" />
    <glyph glyph-name="bar" unicode="|" horiz-adv-x="231" 
d="M87 -230v960h57v-960h-57z" />
    <glyph glyph-name="braceright" unicode="}" horiz-adv-x="365" 
d="M118 -180h-81v49h60c42 0 70 28 70 70v257c0 49 32 84 81 86l10 1l-10 1c-49 3 -81 38 -81 86v247c0 42 -28 70 -70 70h-60v50h81c66 0 109 -44 109 -109v-251c0 -36 25 -61 62 -61h10v-66h-10c-37 0 -62 -24 -62 -61v-260c0 -65 -43 -109 -109 -109z" />
    <glyph glyph-name="asciitilde" unicode="~" horiz-adv-x="723" 
d="M233 398c97 0 183 -117 265 -117c45 0 96 34 119 84h30v-43c-33 -58 -98 -97 -152 -97c-96 0 -181 117 -265 117c-45 0 -99 -33 -125 -83h-28v42c32 58 100 97 156 97z" />
    <glyph glyph-name="exclamdown" unicode="&#xa1;" horiz-adv-x="184" 
d="M47 449c0 26 18 44 45 44s45 -18 45 -44c0 -27 -18 -45 -45 -45s-45 18 -45 45zM58 -47l12 260h43l13 -260v-184l-68 1v183z" />
    <glyph glyph-name="cent" unicode="&#xa2;" 
d="M283 -127v109c-140 13 -236 121 -236 270c0 147 96 255 236 269v109h48v-108c97 -6 184 -64 214 -144v-31h-49c-24 70 -100 121 -182 121c-119 0 -205 -91 -205 -216c0 -126 86 -217 205 -217c82 0 158 51 183 122h48v-35c-31 -78 -118 -135 -214 -141v-108h-48z" />
    <glyph glyph-name="sterling" unicode="&#xa3;" horiz-adv-x="614" 
d="M369 673c-75 0 -129 -62 -129 -148v-145h257v-47h-259c-4 -175 -46 -252 -105 -279h422v-54h-488v74c61 9 105 69 109 259h-99v47h100v145c0 119 79 204 188 203c100 0 180 -69 190 -165v-31h-56c0 82 -55 141 -130 141z" />
    <glyph glyph-name="currency" unicode="&#xa4;" horiz-adv-x="733" 
d="M677 552v-40l-97 -98c34 -44 53 -99 53 -162c0 -64 -19 -120 -53 -163l97 -98v-39h-31l-102 100c-46 -38 -107 -60 -177 -60c-71 0 -132 22 -178 60l-101 -100h-31v39l97 97c-35 43 -54 100 -54 164c0 63 19 119 53 162l-96 98v40h31l101 -101c46 38 107 61 178 61
s132 -23 178 -61l101 101h31zM571 252c-1 121 -85 206 -204 207c-118 0 -203 -86 -204 -207s84 -208 204 -208c119 0 204 87 204 208z" />
    <glyph glyph-name="yen" unicode="&#xa5;" horiz-adv-x="679" 
d="M100 703l233 -384l232 384h53v-38l-233 -378h226v-41h-244v-125h244v-41h-244v-80h-67v80h-246v41h246v125h-246v41h227l-234 378v38h53z" />
    <glyph glyph-name="section" unicode="&#xa7;" horiz-adv-x="585" 
d="M292 705c101 0 181 -51 194 -122v-30h-56c0 53 -60 92 -139 92c-82 0 -142 -44 -142 -103c0 -178 379 -48 379 -254c0 -74 -44 -114 -113 -132c53 -19 91 -58 91 -131c0 -105 -90 -181 -215 -180c-104 1 -188 56 -203 130v32h58c0 -58 63 -102 147 -102
c86 0 146 45 146 113c0 189 -381 38 -382 255c0 68 47 116 116 132c-50 23 -86 66 -86 131c0 98 87 168 205 169zM269 381c-91 -4 -150 -43 -149 -97c0 -90 115 -92 194 -103c93 4 151 42 151 98c0 91 -118 91 -196 102z" />
    <glyph glyph-name="dieresis" unicode="&#xa8;" horiz-adv-x="417" 
d="M47 647c0 26 18 44 45 44s45 -18 45 -44c0 -27 -18 -45 -45 -45s-45 18 -45 45zM280 647c0 26 18 44 45 44s45 -18 45 -44c0 -27 -18 -45 -45 -45s-45 18 -45 45z" />
    <glyph glyph-name="copyright" unicode="&#xa9;" horiz-adv-x="912" 
d="M57 252c0 226 166 395 399 395s399 -165 399 -395c0 -231 -166 -396 -399 -396s-399 165 -399 396zM106 252c0 -204 146 -350 350 -350s350 146 350 350c0 199 -146 349 -350 349s-350 -150 -350 -349zM689 378v-31h-44c-24 74 -104 127 -189 127
c-122 0 -211 -93 -211 -222c0 -130 89 -223 213 -223c84 0 163 53 188 128h43l1 -35c-32 -82 -129 -140 -233 -140c-154 0 -264 112 -264 270c0 157 111 270 265 270c105 0 201 -60 231 -144z" />
    <glyph glyph-name="guillemotleft" unicode="&#xab;" horiz-adv-x="562" 
d="M253 0l-218 252l218 251h45v-35l-195 -216l195 -217v-35h-45zM479 0l-219 252l219 251h44v-35l-193 -216l193 -217v-35h-44z" />
    <glyph glyph-name="logicalnot" unicode="&#xac;" horiz-adv-x="682" 
d="M77 350h528v-280h-51l1 225h-478v55z" />
    <glyph glyph-name="registered" unicode="&#xae;" horiz-adv-x="912" 
d="M456 647c233 0 399 -165 399 -395c0 -231 -166 -396 -399 -396s-399 165 -399 396c0 226 166 395 399 395zM456 601c-204 0 -350 -150 -350 -349c0 -204 146 -350 350 -350s350 146 350 350c0 199 -146 349 -350 349zM508 503c91 0 156 -64 156 -147
c0 -75 -50 -132 -124 -143l104 -169v-34h-37l-121 198h-139v-198h-50v493h211zM499 460h-152v-210h155c66 0 112 44 112 107c0 66 -47 103 -115 103z" />
    <glyph glyph-name="macron" unicode="&#xaf;" horiz-adv-x="424" 
d="M60 661h303v-46h-303v46z" />
    <glyph glyph-name="degree" unicode="&#xb0;" horiz-adv-x="476" 
d="M47 541c0 112 76 188 191 188s191 -76 191 -188c0 -113 -76 -188 -191 -188s-191 75 -191 188zM97 541c0 -84 57 -141 141 -141s140 57 140 141s-56 140 -140 140s-141 -56 -141 -140z" />
    <glyph glyph-name="plusminus" unicode="&#xb1;" horiz-adv-x="583" 
d="M57 0v58h470v-58h-470zM57 318v59h203v126h64v-126h203v-59h-203v-135h-64v135h-203z" />
    <glyph glyph-name="acute" unicode="&#xb4;" horiz-adv-x="257" 
d="M47 570v25l119 138h44v-26l-125 -137h-38z" />
    <glyph glyph-name="paragraph" unicode="&#xb6;" horiz-adv-x="680" 
d="M512 -225h-57v878h-130v-878h-57v555c-134 0 -222 75 -221 187s89 186 221 186h335v-50h-91v-878z" />
    <glyph glyph-name="periodcentered" unicode="&#xb7;" horiz-adv-x="184" 
d="M47 278c0 26 18 44 45 44s45 -18 45 -44s-18 -45 -45 -45s-45 19 -45 45z" />
    <glyph glyph-name="cedilla" unicode="&#xb8;" horiz-adv-x="310" 
d="M115 9h43l-9 -75c68 0 114 -42 114 -105c0 -59 -42 -99 -106 -99c-59 0 -103 34 -110 85v25h31c1 -43 32 -72 77 -72c38 0 64 25 64 64c0 43 -31 71 -78 71h-39z" />
    <glyph glyph-name="guillemotright" unicode="&#xbb;" horiz-adv-x="562" 
d="M302 252l-219 -252h-44v35l194 217l-194 216v35h44zM528 252l-219 -252h-44v35l194 217l-194 216v35h44z" />
    <glyph glyph-name="questiondown" unicode="&#xbf;" horiz-adv-x="597" 
d="M345 556v-163h-41c-116 0 -190 -63 -190 -163s88 -169 194 -169c100 0 178 70 190 171h57v-36c-25 -117 -124 -195 -249 -195c-159 0 -259 105 -259 229c0 127 99 216 241 216v110h57zM362 700c0 -26 -19 -44 -45 -44c-27 0 -46 18 -46 44c0 27 19 45 46 45
c26 0 45 -18 45 -45z" />
    <glyph glyph-name="Agrave" unicode="&#xc0;" horiz-adv-x="688" 
d="M301 703h95l253 -664v-39h-57l-57 149h-374l-57 -149h-57v39zM349 643l-170 -440h339zM377 795v-25h-39l-124 117v26h42z" />
    <glyph glyph-name="Aacute" unicode="&#xc1;" horiz-adv-x="681" 
d="M293 703h95l253 -664v-39h-57l-57 149h-374l-57 -149h-57v39zM341 643l-170 -440h339zM313 770v25l120 118h43v-26l-125 -117h-38z" />
    <glyph glyph-name="Acircumflex" unicode="&#xc2;" horiz-adv-x="681" 
d="M293 703h95l253 -664v-39h-57l-57 149h-374l-57 -149h-57v39zM341 643l-170 -440h339zM203 812l103 118h70l103 -118v-25h-38l-100 112l-100 -112h-38v25z" />
    <glyph glyph-name="Atilde" unicode="&#xc3;" horiz-adv-x="681" 
d="M293 703h95l253 -664v-39h-57l-57 149h-374l-57 -149h-57v39zM341 643l-170 -440h339zM249 903c85 0 111 -84 183 -84c34 0 65 17 69 48h38v-27c-19 -45 -60 -66 -107 -66c-94 0 -113 83 -185 83c-36 0 -63 -19 -67 -47h-38v27c19 45 58 66 107 66z" />
    <glyph glyph-name="Adieresis" unicode="&#xc4;" horiz-adv-x="681" 
d="M293 703h95l253 -664v-39h-57l-57 149h-374l-57 -149h-57v39zM341 643l-170 -440h339zM179 805c0 26 18 44 45 44s45 -18 45 -44c0 -27 -18 -45 -45 -45s-45 18 -45 45zM412 805c0 26 18 44 45 44s45 -18 45 -44c0 -27 -18 -45 -45 -45s-45 18 -45 45z" />
    <glyph glyph-name="Aring" unicode="&#xc5;" horiz-adv-x="681" 
d="M293 703h95l253 -664v-39h-57l-57 149h-374l-57 -149h-57v39zM341 643l-170 -440h339zM230 858c0 57 46 98 111 98s111 -41 111 -98s-46 -98 -111 -98s-111 41 -111 98zM274 858c0 -33 28 -57 67 -57s67 24 67 57s-28 56 -67 56s-67 -23 -67 -56z" />
    <glyph glyph-name="AE" unicode="&#xc6;" horiz-adv-x="905" 
d="M435 149h-262l-78 -149h-56v36l349 667h458l1 -60l-350 -1v-256h309l1 -58h-310v-268h359v-60h-421v149zM435 206v447l-233 -447h233z" />
    <glyph glyph-name="Ccedilla" unicode="&#xc7;" horiz-adv-x="816" 
d="M708 221h53v-39c-41 -119 -178 -205 -327 -207l-4 -39c68 0 114 -42 114 -105c0 -60 -42 -100 -106 -100c-59 0 -103 35 -110 85v25h31c1 -43 32 -72 77 -71c38 -1 64 25 64 63c0 43 -31 72 -78 72h-39l9 72c-198 17 -337 169 -337 375c0 218 157 376 374 376
c151 0 290 -90 332 -216v-39h-55c-25 113 -141 193 -275 195c-180 1 -310 -131 -310 -316c0 -184 130 -317 310 -317c132 0 248 78 277 186z" />
    <glyph glyph-name="Egrave" unicode="&#xc8;" horiz-adv-x="624" 
d="M575 0h-488v703h478v-60h-413v-249h373v-58h-373v-276h423v-60zM343 795v-25h-39l-124 117v26h43z" />
    <glyph glyph-name="Eacute" unicode="&#xc9;" horiz-adv-x="624" 
d="M575 0h-488v703h478v-60h-413v-249h373v-58h-373v-276h423v-60zM287 770v25l120 118h43v-26l-125 -117h-38z" />
    <glyph glyph-name="Ecircumflex" unicode="&#xca;" horiz-adv-x="624" 
d="M575 0h-488v703h478v-60h-413v-249h373v-58h-373v-276h423v-60zM177 812l103 118h70l102 -118v-25h-37l-100 112l-100 -112h-38v25z" />
    <glyph glyph-name="Edieresis" unicode="&#xcb;" horiz-adv-x="624" 
d="M575 0h-488v703h478v-60h-413v-249h373v-58h-373v-276h423v-60zM154 805c0 26 18 44 45 44s45 -18 45 -44c0 -27 -18 -45 -45 -45s-45 18 -45 45zM387 805c0 26 18 44 45 44s45 -18 45 -44c0 -27 -18 -45 -45 -45s-45 18 -45 45z" />
    <glyph glyph-name="Igrave" unicode="&#xcc;" horiz-adv-x="314" 
d="M154 0v703h67v-703h-67zM220 795v-25h-39l-124 117v26h42z" />
    <glyph glyph-name="Iacute" unicode="&#xcd;" horiz-adv-x="282" 
d="M91 0v703h67v-703h-67zM91 770v25l120 118h43v-26l-124 -117h-39z" />
    <glyph glyph-name="Icircumflex" unicode="&#xce;" horiz-adv-x="297" 
d="M116 0v703h67v-703h-67zM11 812l103 118h69l104 -118v-25h-38l-100 112l-100 -112h-38v25z" />
    <glyph glyph-name="Idieresis" unicode="&#xcf;" horiz-adv-x="247" 
d="M91 0v703h67v-703h-67zM-38 805c0 26 18 44 45 44s45 -18 45 -44c0 -27 -18 -45 -45 -45s-45 18 -45 45zM195 805c0 26 18 44 45 44s45 -18 45 -44c0 -27 -18 -45 -45 -45s-45 18 -45 45z" />
    <glyph glyph-name="Ntilde" unicode="&#xd1;" horiz-adv-x="766" 
d="M679 703v-703h-80l-449 622v-622h-63v703h80l448 -622v622h64zM291 903c85 0 111 -84 183 -84c34 0 65 17 69 48h38v-27c-19 -45 -60 -66 -107 -66c-94 0 -113 83 -185 83c-36 0 -63 -19 -67 -47h-38v27c19 45 58 66 107 66z" />
    <glyph glyph-name="Ograve" unicode="&#xd2;" horiz-adv-x="862" 
d="M55 352c0 219 156 376 376 376s377 -157 377 -376c0 -220 -157 -377 -377 -377s-376 157 -376 377zM121 352c0 -184 130 -316 310 -317c180 0 310 133 310 317c0 183 -130 316 -310 316s-310 -133 -310 -316zM459 795v-25h-39l-124 117v26h43z" />
    <glyph glyph-name="Oacute" unicode="&#xd3;" horiz-adv-x="862" 
d="M55 352c0 219 156 376 376 376s377 -157 377 -376c0 -220 -157 -377 -377 -377s-376 157 -376 377zM121 352c0 -184 130 -316 310 -317c180 0 310 133 310 317c0 183 -130 316 -310 316s-310 -133 -310 -316zM403 770v25l120 118h43v-26l-124 -117h-39z" />
    <glyph glyph-name="Ocircumflex" unicode="&#xd4;" horiz-adv-x="862" 
d="M55 352c0 219 156 376 376 376s377 -157 377 -376c0 -220 -157 -377 -377 -377s-376 157 -376 377zM121 352c0 -184 130 -316 310 -317c180 0 310 133 310 317c0 183 -130 316 -310 316s-310 -133 -310 -316zM293 812l103 118h70l103 -118v-25h-38l-100 112l-99 -112h-39
v25z" />
    <glyph glyph-name="Otilde" unicode="&#xd5;" horiz-adv-x="862" 
d="M55 352c0 219 156 376 376 376s377 -157 377 -376c0 -220 -157 -377 -377 -377s-376 157 -376 377zM121 352c0 -184 130 -316 310 -317c180 0 310 133 310 317c0 183 -130 316 -310 316s-310 -133 -310 -316zM336 903c85 0 111 -84 183 -84c34 0 65 17 69 48h38v-27
c-19 -45 -60 -66 -107 -66c-94 0 -113 83 -185 83c-36 0 -63 -19 -67 -47h-38v27c19 45 58 66 107 66z" />
    <glyph glyph-name="Odieresis" unicode="&#xd6;" horiz-adv-x="862" 
d="M55 352c0 219 156 376 376 376s377 -157 377 -376c0 -220 -157 -377 -377 -377s-376 157 -376 377zM121 352c0 -184 130 -316 310 -317c180 0 310 133 310 317c0 183 -130 316 -310 316s-310 -133 -310 -316zM269 805c0 26 19 44 46 44c26 0 45 -18 45 -44
c0 -27 -19 -45 -45 -45c-27 0 -46 18 -46 45zM502 805c0 26 19 44 46 44c26 0 45 -18 45 -44c0 -27 -19 -45 -45 -45c-27 0 -46 18 -46 45z" />
    <glyph glyph-name="multiply" unicode="&#xd7;" horiz-adv-x="356" 
d="M37 413v43h34l106 -119l107 119h35v-43l-105 -116l105 -116v-42h-34l-107 118l-107 -118h-34v42l104 116z" />
    <glyph glyph-name="Oslash" unicode="&#xd8;" horiz-adv-x="842" 
d="M55 352c0 218 153 376 366 376c57 0 111 -12 158 -33l83 165h42v-25l-82 -163c102 -65 166 -180 166 -320c0 -218 -154 -377 -367 -377c-50 0 -96 9 -138 25l-70 -140h-42v25l68 135c-113 62 -184 183 -184 332zM121 352c0 -123 56 -223 146 -276l284 564
c-39 18 -83 28 -130 28c-174 0 -300 -133 -300 -316zM721 352c0 114 -49 208 -128 263l-282 -560c34 -13 71 -20 110 -20c174 0 300 132 300 317z" />
    <glyph glyph-name="Ugrave" unicode="&#xd9;" horiz-adv-x="712" 
d="M569 703h66v-419c0 -182 -114 -309 -279 -309s-279 127 -279 309v419h67v-418c0 -141 83 -250 212 -250c128 0 213 103 213 250v418zM385 795v-25h-39l-124 117v26h42z" />
    <glyph glyph-name="Uacute" unicode="&#xda;" horiz-adv-x="712" 
d="M569 703h66v-419c0 -182 -114 -309 -279 -309s-279 127 -279 309v419h67v-418c0 -141 83 -250 212 -250c128 0 213 103 213 250v418zM329 770v25l120 118h43v-26l-125 -117h-38z" />
    <glyph glyph-name="Ucircumflex" unicode="&#xdb;" horiz-adv-x="712" 
d="M569 703h66v-419c0 -182 -114 -309 -279 -309s-279 127 -279 309v419h67v-418c0 -141 83 -250 212 -250c128 0 213 103 213 250v418zM219 812l103 118h70l103 -118v-25h-38l-100 112l-100 -112h-38v25z" />
    <glyph glyph-name="Udieresis" unicode="&#xdc;" horiz-adv-x="712" 
d="M569 703h66v-419c0 -182 -114 -309 -279 -309s-279 127 -279 309v419h67v-418c0 -141 83 -250 212 -250c128 0 213 103 213 250v418zM195 805c0 26 18 44 45 44s45 -18 45 -44c0 -27 -18 -45 -45 -45s-45 18 -45 45zM428 805c0 26 18 44 45 44s45 -18 45 -44
c0 -27 -18 -45 -45 -45s-45 18 -45 45z" />
    <glyph glyph-name="Yacute" unicode="&#xdd;" horiz-adv-x="639" 
d="M87 703l233 -384l232 384h53v-38l-251 -408v-257h-67v257l-253 408v38h53zM292 770v25l120 118h42v-26l-123 -117h-39z" />
    <glyph glyph-name="germandbls" unicode="&#xdf;" horiz-adv-x="705" 
d="M144 0h-67v491c0 133 111 229 267 229c142 0 245 -82 246 -188c1 -79 -60 -141 -148 -155c122 -17 208 -96 208 -203c1 -112 -86 -199 -217 -199c-82 0 -166 30 -191 72v56h41c8 -41 70 -69 138 -69c101 1 163 65 162 146c0 100 -108 166 -256 166h-36v58h40
c111 0 192 49 192 124c0 74 -76 132 -180 132c-117 0 -199 -71 -199 -168v-492z" />
    <glyph glyph-name="agrave" unicode="&#xe0;" horiz-adv-x="641" 
d="M313 523c156 0 267 -113 267 -271v-252h-59v96c-40 -72 -115 -116 -208 -116c-157 0 -266 111 -266 272c0 158 110 271 266 271zM313 466c-119 0 -204 -90 -204 -214c0 -125 85 -215 204 -215s205 90 205 215c0 124 -86 214 -205 214zM347 595v-25h-39l-124 137v26h43z
" />
    <glyph glyph-name="aacute" unicode="&#xe1;" horiz-adv-x="641" 
d="M313 523c156 0 267 -113 267 -271v-252h-59v96c-40 -72 -115 -116 -208 -116c-157 0 -266 111 -266 272c0 158 110 271 266 271zM313 466c-119 0 -204 -90 -204 -214c0 -125 85 -215 204 -215s205 90 205 215c0 124 -86 214 -205 214zM290 570v25l119 138h44v-26
l-125 -137h-38z" />
    <glyph glyph-name="acircumflex" unicode="&#xe2;" horiz-adv-x="641" 
d="M313 523c156 0 267 -113 267 -271v-252h-59v96c-40 -72 -115 -116 -208 -116c-157 0 -266 111 -266 272c0 158 110 271 266 271zM313 466c-119 0 -204 -90 -204 -214c0 -125 85 -215 204 -215s205 90 205 215c0 124 -86 214 -205 214zM180 612l103 138h69l104 -138v-25
h-39l-99 131l-101 -131h-37v25z" />
    <glyph glyph-name="atilde" unicode="&#xe3;" horiz-adv-x="641" 
d="M313 523c156 0 267 -113 267 -271v-252h-59v96c-40 -72 -115 -116 -208 -116c-157 0 -266 111 -266 272c0 158 110 271 266 271zM313 466c-119 0 -204 -90 -204 -214c0 -125 85 -215 204 -215s205 90 205 215c0 124 -86 214 -205 214zM232 701c85 0 111 -84 183 -84
c34 0 65 17 69 48h38v-27c-19 -45 -60 -66 -107 -66c-94 0 -113 83 -185 83c-36 0 -63 -19 -67 -47h-38v27c19 45 58 66 107 66z" />
    <glyph glyph-name="adieresis" unicode="&#xe4;" horiz-adv-x="641" 
d="M313 523c156 0 267 -113 267 -271v-252h-59v96c-40 -72 -115 -116 -208 -116c-157 0 -266 111 -266 272c0 158 110 271 266 271zM313 466c-119 0 -204 -90 -204 -214c0 -125 85 -215 204 -215s205 90 205 215c0 124 -86 214 -205 214zM151 647c0 26 18 44 45 44
s45 -18 45 -44c0 -27 -18 -45 -45 -45s-45 18 -45 45zM384 647c0 26 18 44 45 44s45 -18 45 -44c0 -27 -18 -45 -45 -45s-45 18 -45 45z" />
    <glyph glyph-name="aring" unicode="&#xe5;" horiz-adv-x="641" 
d="M313 523c156 0 267 -113 267 -271v-252h-59v96c-40 -72 -115 -116 -208 -116c-157 0 -266 111 -266 272c0 158 110 271 266 271zM313 466c-119 0 -204 -90 -204 -214c0 -125 85 -215 204 -215s205 90 205 215c0 124 -86 214 -205 214zM207 668c0 63 46 108 111 108
s111 -45 111 -108s-46 -108 -111 -108s-111 45 -111 108zM251 668c0 -39 28 -67 67 -67s67 28 67 67s-28 66 -67 66s-67 -27 -67 -66z" />
    <glyph glyph-name="ae" unicode="&#xe6;" horiz-adv-x="1080" 
d="M518 503h45v-103c37 75 108 123 207 123c154 0 263 -110 264 -264c0 -20 -2 -46 -5 -64h-449c23 -95 96 -158 191 -158c76 0 151 39 178 93h53v-28c-36 -71 -133 -122 -232 -122c-98 0 -170 50 -207 130v-110h-45v100c-44 -74 -121 -120 -214 -120
c-149 0 -257 114 -257 272c0 157 108 271 257 271c93 0 170 -46 214 -120v100zM518 252c0 126 -86 217 -205 217s-204 -91 -204 -217s86 -218 204 -218c116 0 205 86 205 218zM573 260v-12h397c12 122 -77 218 -201 218c-114 0 -196 -87 -196 -206z" />
    <glyph glyph-name="ccedilla" unicode="&#xe7;" 
d="M545 378v-31h-49c-24 70 -100 121 -182 121c-119 0 -205 -91 -205 -216c0 -126 86 -217 205 -217c82 0 158 51 183 122h48v-35c-32 -79 -120 -136 -218 -141l-5 -43c69 0 114 -42 114 -105c0 -60 -42 -100 -106 -100c-59 0 -103 34 -110 85v25h31c1 -43 32 -72 77 -72
c39 0 64 26 64 64c0 43 -31 72 -78 72h-39l9 75c-140 13 -237 121 -237 270c0 158 111 271 267 271c104 0 200 -60 231 -145z" />
    <glyph glyph-name="egrave" unicode="&#xe8;" horiz-adv-x="617" 
d="M307 523c152 0 263 -110 263 -264c0 -20 -2 -46 -6 -64h-448c23 -95 96 -158 191 -158c76 0 151 39 178 93h53v-28c-36 -71 -133 -122 -233 -122c-149 0 -258 118 -258 280c0 153 109 263 260 263zM109 260v-12h397c7 124 -81 218 -202 218c-114 0 -195 -87 -195 -206z
M333 595v-25h-39l-124 137v26h43z" />
    <glyph glyph-name="eacute" unicode="&#xe9;" horiz-adv-x="617" 
d="M307 523c152 0 263 -110 263 -264c0 -20 -2 -46 -6 -64h-448c23 -95 96 -158 191 -158c76 0 151 39 178 93h53v-28c-36 -71 -133 -122 -233 -122c-149 0 -258 118 -258 280c0 153 109 263 260 263zM109 260v-12h397c7 124 -81 218 -202 218c-114 0 -195 -87 -195 -206z
M277 570v25l119 138h44v-26l-125 -137h-38z" />
    <glyph glyph-name="ecircumflex" unicode="&#xea;" horiz-adv-x="617" 
d="M307 523c152 0 263 -110 263 -264c0 -20 -2 -46 -6 -64h-448c23 -95 96 -158 191 -158c76 0 151 39 178 93h53v-28c-36 -71 -133 -122 -233 -122c-149 0 -258 118 -258 280c0 153 109 263 260 263zM109 260v-12h397c7 124 -81 218 -202 218c-114 0 -195 -87 -195 -206z
M167 612l103 138h69l104 -138v-25h-39l-99 131l-101 -131h-37v25z" />
    <glyph glyph-name="edieresis" unicode="&#xeb;" horiz-adv-x="617" 
d="M307 523c152 0 263 -110 263 -264c0 -20 -2 -46 -6 -64h-448c23 -95 96 -158 191 -158c76 0 151 39 178 93h53v-28c-36 -71 -133 -122 -233 -122c-149 0 -258 118 -258 280c0 153 109 263 260 263zM109 260v-12h397c7 124 -81 218 -202 218c-114 0 -195 -87 -195 -206z
M138 647c0 26 18 44 45 44s45 -18 45 -44c0 -27 -18 -45 -45 -45s-45 18 -45 45zM371 647c0 26 18 44 45 44s45 -18 45 -44c0 -27 -18 -45 -45 -45s-45 18 -45 45z" />
    <glyph glyph-name="igrave" unicode="&#xec;" horiz-adv-x="215" 
d="M77 0v503h62v-503h-62zM141 595v-25h-39l-124 137v26h43z" />
    <glyph glyph-name="iacute" unicode="&#xed;" horiz-adv-x="215" 
d="M77 0v503h62v-503h-62zM75 570v25l119 138h43v-26l-124 -137h-38z" />
    <glyph glyph-name="icircumflex" unicode="&#xee;" horiz-adv-x="215" 
d="M77 0v503h62v-503h-62zM-30 612l103 138h69l104 -138v-25h-39l-99 131l-100 -131h-38v25z" />
    <glyph glyph-name="idieresis" unicode="&#xef;" horiz-adv-x="215" 
d="M77 0v503h62v-503h-62zM-54 647c0 26 19 44 46 44c26 0 45 -18 45 -44c0 -27 -19 -45 -45 -45c-27 0 -46 18 -46 45zM179 647c0 26 18 44 45 44s45 -18 45 -44c0 -27 -18 -45 -45 -45s-45 18 -45 45z" />
    <glyph glyph-name="ntilde" unicode="&#xf1;" 
d="M308 523c130 0 218 -92 218 -225v-298h-62v288c0 105 -65 178 -162 178c-95 0 -163 -69 -163 -169v-297h-62v503h62v-76c32 60 93 96 169 96zM215 701c85 0 111 -84 183 -84c34 0 65 17 69 48h38v-27c-19 -45 -60 -66 -107 -66c-94 0 -113 83 -185 83
c-36 0 -63 -19 -67 -47h-38v27c19 45 58 66 107 66z" />
    <glyph glyph-name="ograve" unicode="&#xf2;" horiz-adv-x="627" 
d="M580 252c0 -159 -111 -272 -267 -272s-266 113 -266 272c0 158 110 271 266 271s267 -113 267 -271zM518 252c0 124 -86 214 -205 214s-204 -90 -204 -214c0 -125 85 -215 204 -215s205 90 205 215zM341 595v-25h-38l-125 137v26h44z" />
    <glyph glyph-name="oacute" unicode="&#xf3;" horiz-adv-x="627" 
d="M580 252c0 -159 -111 -272 -267 -272s-266 113 -266 272c0 158 110 271 266 271s267 -113 267 -271zM518 252c0 124 -86 214 -205 214s-204 -90 -204 -214c0 -125 85 -215 204 -215s205 90 205 215zM285 570v25l120 138h43v-26l-125 -137h-38z" />
    <glyph glyph-name="ocircumflex" unicode="&#xf4;" horiz-adv-x="627" 
d="M580 252c0 -159 -111 -272 -267 -272s-266 113 -266 272c0 158 110 271 266 271s267 -113 267 -271zM518 252c0 124 -86 214 -205 214s-204 -90 -204 -214c0 -125 85 -215 204 -215s205 90 205 215zM175 612l104 138h68l104 -138v-25h-38l-100 131l-100 -131h-38v25z" />
    <glyph glyph-name="otilde" unicode="&#xf5;" horiz-adv-x="627" 
d="M580 252c0 -159 -111 -272 -267 -272s-266 113 -266 272c0 158 110 271 266 271s267 -113 267 -271zM518 252c0 124 -86 214 -205 214s-204 -90 -204 -214c0 -125 85 -215 204 -215s205 90 205 215zM223 701c85 0 111 -84 183 -84c34 0 65 17 69 48h38v-27
c-19 -45 -60 -66 -107 -66c-94 0 -113 83 -185 83c-36 0 -63 -19 -67 -47h-38v27c19 45 58 66 107 66z" />
    <glyph glyph-name="odieresis" unicode="&#xf6;" horiz-adv-x="627" 
d="M580 252c0 -159 -111 -272 -267 -272s-266 113 -266 272c0 158 110 271 266 271s267 -113 267 -271zM518 252c0 124 -86 214 -205 214s-204 -90 -204 -214c0 -125 85 -215 204 -215s205 90 205 215zM152 647c0 26 18 44 45 44c26 0 45 -18 45 -44c0 -27 -19 -45 -45 -45
c-27 0 -45 18 -45 45zM385 647c0 26 18 44 45 44c26 0 45 -18 45 -44c0 -27 -19 -45 -45 -45c-27 0 -45 18 -45 45z" />
    <glyph glyph-name="divide" unicode="&#xf7;" horiz-adv-x="563" 
d="M240 61c0 24 17 41 42 41s42 -17 42 -41s-17 -41 -42 -41s-42 17 -42 41zM57 242v50h450v-50h-450zM240 456c0 24 17 41 42 41s42 -17 42 -41s-17 -41 -42 -41s-42 17 -42 41z" />
    <glyph glyph-name="oslash" unicode="&#xf8;" horiz-adv-x="630" 
d="M147 -57l34 69c-83 44 -134 131 -134 240c0 158 111 271 268 271c41 0 79 -8 113 -22l50 99h39v-23l-50 -98c72 -47 116 -128 116 -227c0 -159 -112 -272 -268 -272c-33 0 -64 5 -93 15l-37 -75h-38v23zM104 252c0 -86 39 -155 101 -192l199 394c-26 12 -57 19 -89 19
c-123 0 -211 -93 -211 -221zM525 252c0 76 -31 140 -82 179l-197 -390c21 -7 44 -10 69 -10c122 0 210 92 210 221z" />
    <glyph glyph-name="ugrave" unicode="&#xf9;" 
d="M284 -20c-130 0 -218 92 -218 225v298h62v-288c0 -105 65 -178 162 -178c95 0 163 69 163 169v297h62v-503h-62v76c-32 -60 -93 -96 -169 -96zM320 595v-25h-39l-124 137v26h43z" />
    <glyph glyph-name="uacute" unicode="&#xfa;" 
d="M284 -20c-130 0 -218 92 -218 225v298h62v-288c0 -105 65 -178 162 -178c95 0 163 69 163 169v297h62v-503h-62v76c-32 -60 -93 -96 -169 -96zM264 570v25l119 138h44v-26l-125 -137h-38z" />
    <glyph glyph-name="ucircumflex" unicode="&#xfb;" 
d="M284 -20c-130 0 -218 92 -218 225v298h62v-288c0 -105 65 -178 162 -178c95 0 163 69 163 169v297h62v-503h-62v76c-32 -60 -93 -96 -169 -96zM154 612l103 138h69l104 -138v-25h-39l-99 131l-101 -131h-37v25z" />
    <glyph glyph-name="udieresis" unicode="&#xfc;" 
d="M284 -20c-130 0 -218 92 -218 225v298h62v-288c0 -105 65 -178 162 -178c95 0 163 69 163 169v297h62v-503h-62v76c-32 -60 -93 -96 -169 -96zM130 647c0 26 18 44 45 44s45 -18 45 -44c0 -27 -18 -45 -45 -45s-45 18 -45 45zM363 647c0 26 18 44 45 44s45 -18 45 -44
c0 -27 -18 -45 -45 -45s-45 18 -45 45z" />
    <glyph glyph-name="yacute" unicode="&#xfd;" horiz-adv-x="545" 
d="M56 -162c18 -5 42 -9 56 -9c62 0 103 69 148 173l-231 471v30h54l207 -425l172 425h53v-30l-194 -478c-45 -109 -104 -217 -201 -217c-19 0 -47 4 -64 10v50zM238 570v25l119 138h44v-26l-125 -137h-38z" />
    <glyph glyph-name="ydieresis" unicode="&#xff;" horiz-adv-x="545" 
d="M56 -162c18 -5 42 -9 56 -9c62 0 103 69 148 173l-231 471v30h54l207 -425l172 425h53v-30l-194 -478c-45 -109 -104 -217 -201 -217c-19 0 -47 4 -64 10v50zM105 647c0 26 18 44 45 44s45 -18 45 -44c0 -27 -18 -45 -45 -45s-45 18 -45 45zM338 647c0 26 18 44 45 44
s45 -18 45 -44c0 -27 -18 -45 -45 -45s-45 18 -45 45z" />
    <glyph glyph-name="Amacron" unicode="&#x100;" horiz-adv-x="681" 
d="M293 703h95l253 -664v-39h-57l-57 149h-374l-57 -149h-57v39zM341 643l-170 -440h339zM189 841h303v-46h-303v46z" />
    <glyph glyph-name="amacron" unicode="&#x101;" horiz-adv-x="641" 
d="M313 523c156 0 267 -113 267 -271v-252h-59v96c-40 -72 -115 -116 -208 -116c-157 0 -266 111 -266 272c0 158 110 271 266 271zM313 466c-119 0 -204 -90 -204 -214c0 -125 85 -215 204 -215s205 90 205 215c0 124 -86 214 -205 214zM167 641h303v-46h-303v46z" />
    <glyph glyph-name="Abreve" unicode="&#x102;" horiz-adv-x="681" 
d="M293 703h95l253 -664v-39h-57l-57 149h-374l-57 -149h-57v39zM341 643l-170 -440h339zM341 760c-69 0 -120 46 -129 115v28h45c0 -60 34 -100 84 -101c49 0 83 41 83 101h44v-28c-7 -69 -59 -115 -127 -115z" />
    <glyph glyph-name="abreve" unicode="&#x103;" horiz-adv-x="641" 
d="M313 523c156 0 267 -113 267 -271v-252h-59v96c-40 -72 -115 -116 -208 -116c-157 0 -266 111 -266 272c0 158 110 271 266 271zM313 466c-119 0 -204 -90 -204 -214c0 -125 85 -215 204 -215s205 90 205 215c0 124 -86 214 -205 214zM318 560c-69 0 -120 54 -128 135v28
h45c0 -72 33 -120 83 -120s83 48 83 120h45v-28c-7 -81 -59 -135 -128 -135z" />
    <glyph glyph-name="Aogonek" unicode="&#x104;" horiz-adv-x="679" 
d="M293 703h95l253 -664v-39h-12c-96 -23 -118 -60 -118 -98c0 -69 70 -124 172 -137v-35h-49c-97 20 -167 87 -167 162c0 56 41 98 114 116l-54 141h-374l-57 -149h-57v39zM341 643l-170 -440h339z" />
    <glyph glyph-name="aogonek" unicode="&#x105;" horiz-adv-x="644" 
d="M313 523c156 0 267 -113 267 -271v-252h-10c-96 -23 -118 -60 -118 -98c0 -69 70 -124 172 -137v-35h-49c-97 20 -167 87 -167 162c0 56 41 97 113 116v88c-40 -72 -115 -116 -208 -116c-157 0 -266 111 -266 272c0 158 110 271 266 271zM313 466
c-119 0 -204 -90 -204 -214c0 -125 85 -215 204 -215s205 90 205 215c0 124 -86 214 -205 214z" />
    <glyph glyph-name="Cacute" unicode="&#x106;" horiz-adv-x="816" 
d="M708 221h53v-39c-41 -120 -181 -207 -332 -207c-217 0 -374 159 -374 377s157 376 374 376c151 0 290 -90 332 -216v-39h-55c-25 113 -141 193 -275 195c-180 1 -310 -131 -310 -316c0 -184 130 -317 310 -317c132 0 248 78 277 186zM393 770v25l120 118h43v-26
l-124 -117h-39z" />
    <glyph glyph-name="cacute" unicode="&#x107;" 
d="M545 378v-31h-49c-24 70 -100 121 -182 121c-119 0 -205 -91 -205 -216c0 -126 86 -217 205 -217c82 0 158 51 183 122h48v-35c-33 -83 -129 -142 -233 -142c-155 0 -265 113 -265 272c0 158 111 271 267 271c104 0 200 -60 231 -145zM297 570v25l119 138h43v-26
l-124 -137h-38z" />
    <glyph glyph-name="Ccircumflex" unicode="&#x108;" horiz-adv-x="816" 
d="M708 221h53v-39c-41 -120 -181 -207 -332 -207c-217 0 -374 159 -374 377s157 376 374 376c151 0 290 -90 332 -216v-39h-55c-25 113 -141 193 -275 195c-180 1 -310 -131 -310 -316c0 -184 130 -317 310 -317c132 0 248 78 277 186zM283 812l103 118h70l103 -118v-25
h-38l-100 112l-99 -112h-39v25z" />
    <glyph glyph-name="ccircumflex" unicode="&#x109;" 
d="M545 378v-31h-49c-24 70 -100 121 -182 121c-119 0 -205 -91 -205 -216c0 -126 86 -217 205 -217c82 0 158 51 183 122h48v-35c-33 -83 -129 -142 -233 -142c-155 0 -265 113 -265 272c0 158 111 271 267 271c104 0 200 -60 231 -145zM187 612l104 138h68l104 -138v-25
h-39l-99 131l-101 -131h-37v25z" />
    <glyph glyph-name="Cdotaccent" unicode="&#x10a;" horiz-adv-x="816" 
d="M708 221h53v-39c-41 -120 -181 -207 -332 -207c-217 0 -374 159 -374 377s157 376 374 376c151 0 290 -90 332 -216v-39h-55c-25 113 -141 193 -275 195c-180 1 -310 -131 -310 -316c0 -184 130 -317 310 -317c132 0 248 78 277 186zM380 803c1 26 19 42 45 42
c27 0 45 -16 45 -42s-18 -43 -45 -43s-45 17 -45 43z" />
    <glyph glyph-name="cdotaccent" unicode="&#x10b;" 
d="M545 378v-31h-49c-24 70 -100 121 -182 121c-119 0 -205 -91 -205 -216c0 -126 86 -217 205 -217c82 0 158 51 183 122h48v-35c-33 -83 -129 -142 -233 -142c-155 0 -265 113 -265 272c0 158 111 271 267 271c104 0 200 -60 231 -145zM279 605c0 26 19 44 46 44
c26 0 45 -18 45 -44c0 -27 -19 -45 -45 -45c-27 0 -46 18 -46 45z" />
    <glyph glyph-name="Ccaron" unicode="&#x10c;" horiz-adv-x="816" 
d="M708 221h53v-39c-41 -120 -181 -207 -332 -207c-217 0 -374 159 -374 377s157 376 374 376c151 0 290 -90 332 -216v-39h-55c-25 113 -141 193 -275 195c-180 1 -310 -131 -310 -316c0 -184 130 -317 310 -317c132 0 248 78 277 186zM386 770l-103 118v25h39l99 -112
l100 112h38v-25l-103 -118h-70z" />
    <glyph glyph-name="ccaron" unicode="&#x10d;" 
d="M545 378v-31h-49c-24 70 -100 121 -182 121c-119 0 -205 -91 -205 -216c0 -126 86 -217 205 -217c82 0 158 51 183 122h48v-35c-33 -83 -129 -142 -233 -142c-155 0 -265 113 -265 272c0 158 111 271 267 271c104 0 200 -60 231 -145zM291 570l-104 138v25h37l101 -131
l99 131h39v-25l-104 -138h-68z" />
    <glyph glyph-name="Dcaron" unicode="&#x10e;" horiz-adv-x="751" 
d="M707 352c0 -211 -164 -352 -410 -352h-210v703h210c246 0 410 -140 410 -351zM297 643h-143v-583h143c206 0 344 114 344 292c0 177 -138 291 -344 291zM322 770l-104 118v25h39l100 -112l100 112h38v-25l-104 -118h-69z" />
    <glyph glyph-name="dcaron" unicode="&#x10f;" horiz-adv-x="693" 
d="M516 733h62v-486c0 -155 -110 -267 -264 -267c-155 0 -267 114 -267 272c0 157 111 271 266 271c90 0 163 -44 203 -113v323zM109 252c0 -125 86 -215 204 -215c119 0 204 90 205 215c0 124 -86 214 -205 214s-205 -90 -204 -214zM625 703c0 24 16 40 40 40
c27 0 47 -21 47 -53c0 -54 -27 -106 -64 -124h-28v16c24 9 43 43 43 81c-23 0 -38 17 -38 40z" />
    <glyph glyph-name="Dcroat" unicode="&#x110;" horiz-adv-x="833" 
d="M778 352c0 -211 -164 -352 -410 -352h-211v380h-120v57h120v266h211c246 0 410 -140 410 -351zM367 643h-143v-206h213v-57h-213v-320h143c206 0 344 114 344 292c0 177 -138 291 -344 291z" />
    <glyph glyph-name="dcroat" unicode="&#x111;" horiz-adv-x="691" 
d="M516 733h62v-81h85v-54h-85v-351c0 -155 -110 -267 -264 -267c-155 0 -267 114 -267 272c0 157 111 271 266 271c90 0 163 -44 203 -113v188h-238v54h238v81zM109 252c0 -125 86 -215 204 -215c119 0 204 90 205 215c0 124 -86 214 -205 214s-205 -90 -204 -214z" />
    <glyph glyph-name="Emacron" unicode="&#x112;" horiz-adv-x="624" 
d="M575 0h-488v703h478v-60h-413v-249h373v-58h-373v-276h423v-60zM173 841h304v-46h-304v46z" />
    <glyph glyph-name="emacron" unicode="&#x113;" horiz-adv-x="617" 
d="M307 523c152 0 263 -110 263 -264c0 -20 -2 -46 -6 -64h-448c23 -95 96 -158 191 -158c76 0 151 39 178 93h53v-28c-36 -71 -133 -122 -233 -122c-149 0 -258 118 -258 280c0 153 109 263 260 263zM109 260v-12h397c7 124 -81 218 -202 218c-114 0 -195 -87 -195 -206z
M153 641h303v-46h-303v46z" />
    <glyph glyph-name="Ebreve" unicode="&#x114;" horiz-adv-x="624" 
d="M575 0h-488v703h478v-60h-413v-249h373v-58h-373v-276h423v-60zM315 760c-69 0 -120 46 -128 115v28h44c0 -60 35 -100 84 -101c49 0 83 41 83 101h44l1 -28c-8 -69 -59 -115 -128 -115z" />
    <glyph glyph-name="ebreve" unicode="&#x115;" horiz-adv-x="617" 
d="M307 523c152 0 263 -110 263 -264c0 -20 -2 -46 -6 -64h-448c23 -95 96 -158 191 -158c76 0 151 39 178 93h53v-28c-36 -71 -133 -122 -233 -122c-149 0 -258 118 -258 280c0 153 109 263 260 263zM109 260v-12h397c7 124 -81 218 -202 218c-114 0 -195 -87 -195 -206z
M305 560c-69 0 -121 54 -128 135v28h45c0 -72 33 -120 83 -120c49 0 83 48 83 120h45v-28c-8 -81 -59 -135 -128 -135z" />
    <glyph glyph-name="Edotaccent" unicode="&#x116;" horiz-adv-x="624" 
d="M575 0h-488v703h478v-60h-413v-249h373v-58h-373v-276h423v-60zM274 803c1 26 19 42 45 42c27 0 45 -16 45 -42s-18 -43 -45 -43s-45 17 -45 43z" />
    <glyph glyph-name="edotaccent" unicode="&#x117;" horiz-adv-x="617" 
d="M307 523c152 0 263 -110 263 -264c0 -20 -2 -46 -6 -64h-448c23 -95 96 -158 191 -158c76 0 151 39 178 93h53v-28c-36 -71 -133 -122 -233 -122c-149 0 -258 118 -258 280c0 153 109 263 260 263zM109 260v-12h397c7 124 -81 218 -202 218c-114 0 -195 -87 -195 -206z
M260 605c0 26 18 44 45 44s45 -18 45 -44c0 -27 -18 -45 -45 -45s-45 18 -45 45z" />
    <glyph glyph-name="Eogonek" unicode="&#x118;" horiz-adv-x="624" 
d="M575 0h-55c-96 -23 -118 -60 -118 -98c0 -69 70 -124 172 -137v-35h-49c-97 20 -167 87 -167 162c0 49 31 87 87 108h-358v703h478v-60h-413v-249h373v-58h-373v-276h423v-60z" />
    <glyph glyph-name="eogonek" unicode="&#x119;" horiz-adv-x="617" 
d="M307 523c152 0 263 -110 263 -264c0 -20 -2 -46 -6 -64h-448c23 -95 96 -158 191 -158c76 0 151 39 178 93h53v-28c-30 -59 -101 -103 -181 -117c-55 -23 -69 -52 -69 -83c0 -69 70 -124 172 -137v-35h-49c-97 20 -167 87 -167 162c0 36 17 66 49 88
c-143 6 -246 122 -246 280c0 153 109 263 260 263zM109 260v-12h397c7 124 -81 218 -202 218c-114 0 -195 -87 -195 -206z" />
    <glyph glyph-name="Ecaron" unicode="&#x11a;" horiz-adv-x="624" 
d="M575 0h-488v703h478v-60h-413v-249h373v-58h-373v-276h423v-60zM279 770l-103 118v25h38l100 -112l100 112h38v-25l-103 -118h-70z" />
    <glyph glyph-name="ecaron" unicode="&#x11b;" horiz-adv-x="617" 
d="M307 523c152 0 263 -110 263 -264c0 -20 -2 -46 -6 -64h-448c23 -95 96 -158 191 -158c76 0 151 39 178 93h53v-28c-36 -71 -133 -122 -233 -122c-149 0 -258 118 -258 280c0 153 109 263 260 263zM109 260v-12h397c7 124 -81 218 -202 218c-114 0 -195 -87 -195 -206z
M270 570l-103 138v25h37l101 -131l99 131h39v-25l-104 -138h-69z" />
    <glyph glyph-name="Gbreve" unicode="&#x11e;" horiz-adv-x="851" 
d="M730 329h-301v58h366c15 -239 -138 -412 -364 -412c-219 0 -376 159 -376 377s157 376 376 376c139 0 270 -78 315 -187v-38h-53c-33 96 -142 165 -262 165c-180 1 -310 -132 -310 -316c0 -183 130 -315 310 -317c172 -2 298 122 299 294zM439 760
c-68 0 -120 46 -128 115v28h45c0 -60 34 -100 83 -101c50 0 84 41 84 101h44l1 -28c-9 -69 -60 -115 -129 -115z" />
    <glyph glyph-name="gbreve" unicode="&#x11f;" horiz-adv-x="643" 
d="M313 523c154 0 265 -113 265 -271v-254c0 -145 -107 -248 -256 -248c-129 0 -240 79 -264 189v31h58c12 -94 96 -163 204 -163c114 0 196 81 196 193v102c-42 -72 -116 -119 -206 -119c-153 0 -263 114 -263 269c0 158 111 271 266 271zM313 466
c-119 0 -204 -90 -204 -214c0 -123 86 -211 204 -211c120 0 204 86 204 211c0 124 -84 214 -204 214zM313 560c-68 0 -120 54 -128 135v28h45c0 -72 33 -120 83 -120s83 48 83 120h45v-28c-7 -81 -59 -135 -128 -135z" />
    <glyph glyph-name="Gdotaccent" unicode="&#x120;" horiz-adv-x="851" 
d="M730 329h-301v58h366c15 -239 -138 -412 -364 -412c-219 0 -376 159 -376 377s157 376 376 376c139 0 270 -78 315 -187v-38h-53c-33 96 -142 165 -262 165c-180 1 -310 -132 -310 -316c0 -183 130 -315 310 -317c172 -2 298 122 299 294zM399 803c0 26 18 42 44 42
c28 0 46 -16 46 -42s-18 -43 -46 -43c-26 0 -45 17 -44 43z" />
    <glyph glyph-name="gdotaccent" unicode="&#x121;" horiz-adv-x="643" 
d="M313 523c154 0 265 -113 265 -271v-254c0 -145 -107 -248 -256 -248c-129 0 -240 79 -264 189v31h58c12 -94 96 -163 204 -163c114 0 196 81 196 193v102c-42 -72 -116 -119 -206 -119c-153 0 -263 114 -263 269c0 158 111 271 266 271zM313 466
c-119 0 -204 -90 -204 -214c0 -123 86 -211 204 -211c120 0 204 86 204 211c0 124 -84 214 -204 214zM268 605c0 26 19 44 45 44c27 0 45 -18 45 -44c0 -27 -18 -45 -45 -45c-26 0 -45 18 -45 45z" />
    <glyph glyph-name="Gcommaaccent" unicode="&#x122;" horiz-adv-x="851" 
d="M730 329h-301v58h366c15 -239 -138 -412 -364 -412c-219 0 -376 159 -376 377s157 376 376 376c139 0 270 -78 315 -187v-38h-53c-33 96 -142 165 -262 165c-180 1 -310 -132 -310 -316c0 -183 130 -315 310 -317c172 -2 298 122 299 294zM395 -113c0 23 16 40 40 40
c28 0 46 -22 46 -54c0 -53 -26 -105 -63 -124h-28v16c25 9 43 42 43 81c-23 -1 -38 16 -38 41z" />
    <glyph glyph-name="gcommaaccent" unicode="&#x123;" horiz-adv-x="643" 
d="M313 523c154 0 265 -113 265 -271v-254c0 -145 -107 -248 -256 -248c-129 0 -240 79 -264 189v31h58c12 -94 96 -163 204 -163c114 0 196 81 196 193v102c-42 -72 -116 -119 -206 -119c-153 0 -263 114 -263 269c0 158 111 271 266 271zM313 466
c-119 0 -204 -90 -204 -214c0 -123 86 -211 204 -211c120 0 204 86 204 211c0 124 -84 214 -204 214zM358 600c0 -24 -16 -40 -40 -40c-28 0 -47 21 -47 53c0 54 27 106 64 124h28v-15c-25 -9 -43 -43 -43 -81c22 0 37 -17 38 -41z" />
    <glyph glyph-name="Itilde" unicode="&#x128;" horiz-adv-x="239" 
d="M87 0v703h67v-703h-67zM27 903c85 0 111 -84 183 -84c34 0 65 17 69 48h38v-27c-19 -45 -60 -66 -107 -66c-94 0 -113 83 -185 83c-36 0 -63 -19 -67 -47h-38v27c19 45 58 66 107 66z" />
    <glyph glyph-name="itilde" unicode="&#x129;" horiz-adv-x="215" 
d="M77 0v503h62v-503h-62zM16 701c85 0 111 -84 183 -84c34 0 65 17 69 48h38v-27c-19 -45 -60 -66 -107 -66c-94 0 -113 83 -185 83c-36 0 -63 -19 -67 -47h-38v27c19 45 58 66 107 66z" />
    <glyph glyph-name="Imacron" unicode="&#x12a;" horiz-adv-x="239" 
d="M87 0v703h67v-703h-67zM-32 841h303v-46h-303v46z" />
    <glyph glyph-name="imacron" unicode="&#x12b;" horiz-adv-x="215" 
d="M77 0v503h62v-503h-62zM-43 641h302v-46h-302v46z" />
    <glyph glyph-name="Iogonek" unicode="&#x12e;" horiz-adv-x="239" 
d="M154 703v-703c-96 -23 -118 -60 -118 -98c0 -69 70 -124 172 -137v-35h-49c-97 20 -167 87 -167 162c0 51 34 90 95 111v700h67z" />
    <glyph glyph-name="iogonek" unicode="&#x12f;" horiz-adv-x="200" 
d="M132 503v-503c-96 -23 -118 -60 -118 -98c0 -69 70 -124 172 -137v-35h-49c-97 20 -167 87 -167 162c0 52 36 92 100 112v499h62zM56 647c0 26 18 44 45 44s45 -18 45 -44c0 -27 -18 -45 -45 -45s-45 18 -45 45z" />
    <glyph glyph-name="Idotaccent" unicode="&#x130;" horiz-adv-x="253" 
d="M90 0v703h67v-703h-67zM81 803c1 26 19 42 45 42c28 0 46 -16 46 -42s-18 -43 -45 -43c-28 0 -46 17 -46 43z" />
    <glyph glyph-name="dotlessi" unicode="&#x131;" horiz-adv-x="215" 
d="M77 0v503h62v-503h-62z" />
    <glyph glyph-name="IJ" unicode="&#x132;" horiz-adv-x="681" 
d="M87 0v703h67v-703h-67zM538 703h66v-496c0 -133 -85 -227 -204 -227c-36 0 -86 8 -125 20v55c40 -10 86 -18 114 -18c86 -1 149 73 148 176z" />
    <glyph glyph-name="ij" unicode="&#x133;" horiz-adv-x="456" 
d="M81 0v503h62v-503h-62zM313 503h62v-590c0 -82 -50 -136 -126 -136c-28 0 -60 4 -81 11v55c20 -6 47 -9 68 -9c47 1 77 35 77 85v584zM67 647c0 26 18 44 45 44s45 -18 45 -44c0 -27 -18 -45 -45 -45s-45 18 -45 45zM299 647c0 26 18 44 45 44s45 -18 45 -44
c0 -27 -18 -45 -45 -45s-45 18 -45 45z" />
    <glyph glyph-name="Kcommaaccent" unicode="&#x136;" horiz-adv-x="585" 
d="M154 399l336 304h52v-36l-331 -295l341 -336v-36h-54l-344 343v-343h-67v703h67v-304zM258 -113c0 23 16 40 39 40c28 0 47 -22 47 -54c0 -53 -27 -105 -63 -124h-29v16c25 9 43 42 43 81c-22 -1 -37 16 -37 41z" />
    <glyph glyph-name="kcommaaccent" unicode="&#x137;" horiz-adv-x="476" 
d="M139 288l247 215h51v-34l-243 -207l253 -229v-33h-53l-255 234v-234h-62v733h62v-445zM215 -113c0 23 16 40 40 40c27 0 46 -22 46 -54c0 -53 -26 -105 -64 -124h-28v16c25 9 43 42 43 81c-22 -1 -37 16 -37 41z" />
    <glyph glyph-name="Lacute" unicode="&#x139;" horiz-adv-x="547" 
d="M87 703h67v-643h373v-60h-440v703zM97 770v25l120 118h43v-26l-124 -117h-39z" />
    <glyph glyph-name="lacute" unicode="&#x13a;" horiz-adv-x="218" 
d="M74 0v733h62v-733h-62zM77 770v25l120 118h43v-26l-124 -117h-39z" />
    <glyph glyph-name="Lcommaaccent" unicode="&#x13b;" horiz-adv-x="543" 
d="M87 703h67v-643h373v-60h-440v703zM285 -113c0 23 16 40 39 40c28 0 47 -22 47 -54c0 -53 -26 -106 -63 -124h-28v16c24 9 43 42 43 80c-23 0 -38 17 -38 42z" />
    <glyph glyph-name="lcommaaccent" unicode="&#x13c;" horiz-adv-x="267" 
d="M106 0v733h62v-733h-62zM93 -112c0 24 16 40 39 40c29 0 47 -22 47 -53c0 -54 -26 -106 -63 -124l-28 -1v17c25 9 43 42 43 80c-23 0 -38 17 -38 41z" />
    <glyph glyph-name="Lcaron" unicode="&#x13d;" horiz-adv-x="547" 
d="M87 703h67v-643h373v-60h-440v703zM235 674c0 24 17 40 41 40c27 0 46 -22 46 -53c0 -54 -27 -106 -63 -124h-29v16c26 8 44 42 44 80c-23 0 -39 17 -39 41z" />
    <glyph glyph-name="lcaron" unicode="&#x13e;" horiz-adv-x="288" 
d="M77 0v733h62v-733h-62zM187 703c0 24 16 40 40 40c28 0 47 -21 47 -52c0 -54 -27 -107 -64 -125h-28v17c25 8 43 42 43 80c-23 0 -38 17 -38 40z" />
    <glyph glyph-name="Lslash" unicode="&#x141;" horiz-adv-x="593" 
d="M543 630h27v-43l-375 -295v-238h373v-54h-438v241l-103 -81h-27v43l130 102v398h65v-347z" />
    <glyph glyph-name="lslash" unicode="&#x142;" horiz-adv-x="481" 
d="M446 627h26v-44l-201 -166v-417h-62v366l-173 -143h-27v43l200 165v302h62v-251z" />
    <glyph glyph-name="Nacute" unicode="&#x143;" horiz-adv-x="766" 
d="M679 703v-703h-80l-449 622v-622h-63v703h80l448 -622v622h64zM355 770v25l120 118h43v-26l-124 -117h-39z" />
    <glyph glyph-name="nacute" unicode="&#x144;" 
d="M308 523c130 0 218 -92 218 -225v-298h-62v288c0 105 -65 178 -162 178c-95 0 -163 -69 -163 -169v-297h-62v503h62v-76c32 60 93 96 169 96zM273 570v25l120 138h43v-26l-124 -137h-39z" />
    <glyph glyph-name="Ncommaaccent" unicode="&#x145;" horiz-adv-x="766" 
d="M679 703v-703h-80l-449 622v-622h-63v703h80l448 -622v622h64zM338 -113c0 23 17 40 40 40c28 0 47 -22 47 -54c0 -53 -27 -105 -64 -124h-28v16c25 9 44 42 44 81c-23 -1 -39 16 -39 41z" />
    <glyph glyph-name="ncommaaccent" unicode="&#x146;" 
d="M308 523c130 0 218 -92 218 -225v-298h-62v288c0 105 -65 178 -162 178c-95 0 -163 -69 -163 -169v-297h-62v503h62v-76c32 60 93 96 169 96zM257 -113c0 23 16 40 40 40c28 0 46 -22 46 -54c0 -53 -26 -105 -63 -124h-28v16c25 9 43 42 43 81c-23 -1 -38 16 -38 41z" />
    <glyph glyph-name="Ncaron" unicode="&#x147;" horiz-adv-x="766" 
d="M679 703v-703h-80l-449 622v-622h-63v703h80l448 -622v622h64zM348 770l-103 118v25h38l100 -112l100 112h38v-25l-103 -118h-70z" />
    <glyph glyph-name="ncaron" unicode="&#x148;" 
d="M308 523c130 0 218 -92 218 -225v-298h-62v288c0 105 -65 178 -162 178c-95 0 -163 -69 -163 -169v-297h-62v503h62v-76c32 60 93 96 169 96zM267 570l-104 138v25h38l101 -131l99 131h39v-25l-104 -138h-69z" />
    <glyph glyph-name="Omacron" unicode="&#x14c;" horiz-adv-x="862" 
d="M55 352c0 219 156 376 376 376s377 -157 377 -376c0 -220 -157 -377 -377 -377s-376 157 -376 377zM121 352c0 -184 130 -316 310 -317c180 0 310 133 310 317c0 183 -130 316 -310 316s-310 -133 -310 -316zM280 841h303v-46h-303v46z" />
    <glyph glyph-name="omacron" unicode="&#x14d;" horiz-adv-x="627" 
d="M580 252c0 -159 -111 -272 -267 -272s-266 113 -266 272c0 158 110 271 266 271s267 -113 267 -271zM518 252c0 124 -86 214 -205 214s-204 -90 -204 -214c0 -125 85 -215 204 -215s205 90 205 215zM162 641h303v-46h-303v46z" />
    <glyph glyph-name="Obreve" unicode="&#x14e;" horiz-adv-x="862" 
d="M55 352c0 219 156 376 376 376s377 -157 377 -376c0 -220 -157 -377 -377 -377s-376 157 -376 377zM121 352c0 -184 130 -316 310 -317c180 0 310 133 310 317c0 183 -130 316 -310 316s-310 -133 -310 -316zM431 760c-69 0 -120 46 -128 115v28h44
c0 -60 35 -100 84 -101c49 0 84 41 84 101h44v-28c-8 -69 -59 -115 -128 -115z" />
    <glyph glyph-name="obreve" unicode="&#x14f;" horiz-adv-x="627" 
d="M580 252c0 -159 -111 -272 -267 -272s-266 113 -266 272c0 158 110 271 266 271s267 -113 267 -271zM518 252c0 124 -86 214 -205 214s-204 -90 -204 -214c0 -125 85 -215 204 -215s205 90 205 215zM313 560c-69 0 -120 54 -128 135v28h45c0 -72 33 -120 83 -120
s83 48 83 120h45v-28c-7 -81 -59 -135 -128 -135z" />
    <glyph glyph-name="Ohungarumlaut" unicode="&#x150;" horiz-adv-x="862" 
d="M55 352c0 219 156 376 376 376s377 -157 377 -376c0 -220 -157 -377 -377 -377s-376 157 -376 377zM121 352c0 -184 130 -316 310 -317c180 0 310 133 310 317c0 183 -130 316 -310 316s-310 -133 -310 -316zM310 770v25l107 122h44v-27l-113 -120h-38zM461 770v25
l111 122h43v-27l-115 -120h-39z" />
    <glyph glyph-name="ohungarumlaut" unicode="&#x151;" horiz-adv-x="627" 
d="M580 252c0 -159 -111 -272 -267 -272s-266 113 -266 272c0 158 110 271 266 271s267 -113 267 -271zM518 252c0 124 -86 214 -205 214s-204 -90 -204 -214c0 -125 85 -215 204 -215s205 90 205 215zM192 570v25l108 155h43v-27l-113 -153h-38zM343 570v25l112 155h42v-27
l-116 -153h-38z" />
    <glyph glyph-name="OE" unicode="&#x152;" horiz-adv-x="1050" 
d="M425 728c41 0 84 -9 124 -25h442v-60h-380v-257h340v-58h-340v-268h390v-60h-452c-40 -16 -83 -25 -124 -25c-215 0 -370 158 -370 377c0 218 155 376 370 376zM428 667c-178 0 -307 -133 -307 -315s127 -316 301 -316c43 0 85 7 123 25v581c-36 17 -76 25 -117 25z" />
    <glyph glyph-name="oe" unicode="&#x153;" horiz-adv-x="1088" 
d="M310 523c110 0 199 -63 237 -160c36 97 123 160 234 160c151 0 260 -110 260 -262c0 -18 -2 -47 -5 -63h-449c22 -95 96 -158 191 -158c77 0 152 39 177 91h54v-27c-36 -72 -133 -124 -230 -124c-108 0 -194 65 -231 165c-37 -100 -126 -165 -238 -165
c-153 0 -263 114 -263 272c0 157 110 271 263 271zM518 252c0 122 -86 211 -205 211c-118 0 -204 -89 -204 -211c0 -123 86 -212 204 -212s204 89 205 212zM580 260v-15h397c12 121 -79 218 -202 218c-113 0 -195 -86 -195 -203z" />
    <glyph glyph-name="Racute" unicode="&#x154;" horiz-adv-x="696" 
d="M391 703c148 0 251 -89 251 -218c0 -102 -73 -185 -179 -205l159 -247v-33h-56l-171 270h-241v-270h-67v703h304zM154 643v-312h233c111 0 188 63 188 154c0 97 -77 158 -188 158h-233zM285 770v25l120 118h42v-26l-124 -117h-38z" />
    <glyph glyph-name="racute" unicode="&#x155;" horiz-adv-x="421" 
d="M279 522c42 0 91 -16 113 -39v-54h-34c-14 22 -51 37 -88 37c-79 0 -131 -74 -131 -181v-285h-62v503h60v-77c28 60 78 96 142 96zM204 570v25l120 138h43v-26l-124 -137h-39z" />
    <glyph glyph-name="Rcommaaccent" unicode="&#x156;" horiz-adv-x="696" 
d="M391 703c148 0 251 -89 251 -218c0 -102 -73 -185 -179 -205l159 -247v-33h-56l-171 270h-241v-270h-67v703h304zM154 643v-312h233c111 0 188 63 188 154c0 97 -77 158 -188 158h-233zM298 -113c0 23 17 40 40 40c28 0 47 -22 47 -54c0 -53 -27 -105 -64 -124h-28v16
c25 9 43 42 43 81c-22 -1 -38 16 -38 41z" />
    <glyph glyph-name="rcommaaccent" unicode="&#x157;" horiz-adv-x="427" 
d="M280 522c42 0 91 -16 113 -39v-54h-34c-14 22 -51 37 -88 37c-79 0 -131 -74 -131 -181v-285h-62v503h60v-77c28 60 78 96 142 96zM82 -113c0 23 16 40 40 40c28 0 47 -22 47 -54c0 -53 -27 -105 -64 -124h-28v16c25 9 43 42 43 81c-23 -1 -38 16 -38 41z" />
    <glyph glyph-name="Rcaron" unicode="&#x158;" horiz-adv-x="696" 
d="M391 703c148 0 251 -89 251 -218c0 -102 -73 -185 -179 -205l159 -247v-33h-56l-171 270h-241v-270h-67v703h304zM154 643v-312h233c111 0 188 63 188 154c0 97 -77 158 -188 158h-233zM278 770l-103 118v25h38l100 -112l100 112h38v-25l-104 -118h-69z" />
    <glyph glyph-name="rcaron" unicode="&#x159;" horiz-adv-x="421" 
d="M279 522c42 0 91 -16 113 -39v-54h-34c-14 22 -51 37 -88 37c-79 0 -131 -74 -131 -181v-285h-62v503h60v-77c28 60 78 96 142 96zM198 570l-103 138v25h38l100 -131l99 131h39v-25l-104 -138h-69z" />
    <glyph glyph-name="Sacute" unicode="&#x15a;" horiz-adv-x="658" 
d="M330 -25c-141 0 -255 76 -278 185v35h61c8 -93 96 -158 214 -160c125 -1 214 66 214 158c1 224 -492 34 -492 323c0 126 106 212 260 212c139 0 250 -68 269 -167v-34h-60c-7 83 -91 141 -206 141c-117 0 -196 -59 -196 -146c0 -226 492 -39 492 -320
c1 -133 -116 -227 -278 -227zM291 770v25l120 118h43v-26l-124 -117h-39z" />
    <glyph glyph-name="sacute" unicode="&#x15b;" horiz-adv-x="493" 
d="M249 -20c-99 0 -184 55 -207 133v32h56c12 -64 73 -108 152 -108c81 0 143 44 143 107c0 133 -354 27 -354 231c0 87 81 148 200 148c99 0 179 -41 192 -100v-30h-54c-4 44 -60 73 -137 73c-86 0 -140 -37 -140 -91c0 -133 354 -34 353 -228c0 -99 -88 -167 -204 -167z
M203 570v25l120 138h44v-26l-125 -137h-39z" />
    <glyph glyph-name="Scircumflex" unicode="&#x15c;" horiz-adv-x="658" 
d="M330 -25c-141 0 -255 76 -278 185v35h61c8 -93 96 -158 214 -160c125 -1 214 66 214 158c1 224 -492 34 -492 323c0 126 106 212 260 212c139 0 250 -68 269 -167v-34h-60c-7 83 -91 141 -206 141c-117 0 -196 -59 -196 -146c0 -226 492 -39 492 -320
c1 -133 -116 -227 -278 -227zM181 812l103 118h70l103 -118v-25h-38l-100 112l-99 -112h-39v25z" />
    <glyph glyph-name="scircumflex" unicode="&#x15d;" horiz-adv-x="493" 
d="M249 -20c-99 0 -184 55 -207 133v32h56c12 -64 73 -108 152 -108c81 0 143 44 143 107c0 133 -354 27 -354 231c0 87 81 148 200 148c99 0 179 -41 192 -100v-30h-54c-4 44 -60 73 -137 73c-86 0 -140 -37 -140 -91c0 -133 354 -34 353 -228c0 -99 -88 -167 -204 -167z
M94 612l104 138h68l104 -138v-25h-38l-100 131l-100 -131h-38v25z" />
    <glyph glyph-name="Scedilla" unicode="&#x15e;" horiz-adv-x="658" 
d="M608 202c1 -133 -115 -226 -276 -227l-4 -34c68 0 114 -42 114 -105c0 -60 -43 -100 -106 -100c-59 0 -103 34 -110 85v25h30c2 -43 32 -72 77 -72c39 0 65 26 65 64c0 43 -31 72 -78 72h-39l8 67c-122 13 -216 84 -237 183v35h61c8 -93 96 -158 214 -160
c125 -1 214 66 214 158c1 224 -492 34 -492 323c0 126 106 212 260 212c139 0 250 -68 269 -167v-34h-60c-7 83 -91 141 -206 141c-117 0 -196 -59 -196 -146c0 -226 492 -39 492 -320z" />
    <glyph glyph-name="scedilla" unicode="&#x15f;" horiz-adv-x="493" 
d="M453 147c0 -97 -85 -164 -198 -167l-4 -39c68 0 114 -42 114 -105c0 -60 -43 -100 -106 -100c-59 0 -103 34 -110 85v25h30c2 -43 33 -72 78 -72c38 0 64 26 64 64c0 43 -32 72 -78 72h-39l9 73c-83 11 -151 61 -171 130v32h56c12 -64 73 -108 152 -108
c81 0 143 44 143 107c0 133 -354 27 -354 231c0 87 81 148 200 148c99 0 179 -41 192 -100v-30h-54c-4 44 -60 73 -137 73c-86 0 -140 -37 -140 -91c0 -133 354 -34 353 -228z" />
    <glyph glyph-name="Scaron" unicode="&#x160;" horiz-adv-x="658" 
d="M330 -25c-141 0 -255 76 -278 185v35h61c8 -93 96 -158 214 -160c125 -1 214 66 214 158c1 224 -492 34 -492 323c0 126 106 212 260 212c139 0 250 -68 269 -167v-34h-60c-7 83 -91 141 -206 141c-117 0 -196 -59 -196 -146c0 -226 492 -39 492 -320
c1 -133 -116 -227 -278 -227zM283 770l-103 118v25h38l100 -112l100 112h38v-25l-103 -118h-70z" />
    <glyph glyph-name="scaron" unicode="&#x161;" horiz-adv-x="493" 
d="M249 -20c-99 0 -184 55 -207 133v32h56c12 -64 73 -108 152 -108c81 0 143 44 143 107c0 133 -354 27 -354 231c0 87 81 148 200 148c99 0 179 -41 192 -100v-30h-54c-4 44 -60 73 -137 73c-86 0 -140 -37 -140 -91c0 -133 354 -34 353 -228c0 -99 -88 -167 -204 -167z
M198 570l-104 138v25h38l100 -131l100 131h38v-25l-104 -138h-68z" />
    <glyph glyph-name="Tcommaaccent" unicode="&#x162;" horiz-adv-x="577" 
d="M15 703h547v-60h-240v-643h-67v643h-240v60zM243 -113c0 23 16 40 40 40c28 0 47 -22 47 -54c0 -53 -27 -105 -64 -124h-28v16c25 9 43 42 43 81c-23 -1 -38 16 -38 41z" />
    <glyph glyph-name="tcommaaccent" unicode="&#x163;" horiz-adv-x="354" 
d="M30 451v52h85v110h62v-110h134v-52h-134v-329c0 -50 30 -84 76 -85c20 0 47 4 66 10v-55c-20 -7 -52 -12 -79 -12c-75 0 -125 55 -125 137v334h-85zM180 -113c0 23 16 40 40 40c28 0 47 -22 47 -54c0 -53 -27 -105 -64 -124h-28v16c25 9 43 42 43 81
c-23 -1 -38 16 -38 41z" />
    <glyph glyph-name="Tcaron" unicode="&#x164;" horiz-adv-x="577" 
d="M15 703h547v-60h-240v-643h-67v643h-240v60zM253 770l-103 118v25h38l100 -112l100 112h38v-25l-103 -118h-70z" />
    <glyph glyph-name="tcaron" unicode="&#x165;" horiz-adv-x="365" 
d="M30 451v52h85v110h62v-110h134v-52h-134v-329c0 -50 30 -84 76 -85c20 0 47 4 66 10v-55c-20 -7 -52 -12 -79 -12c-75 0 -125 55 -125 137v334h-85zM238 671c0 24 16 39 40 39c27 0 46 -21 46 -53c0 -52 -29 -102 -72 -124h-28v17c31 10 51 43 51 80c-22 0 -37 17 -37 41
z" />
    <glyph glyph-name="Utilde" unicode="&#x168;" horiz-adv-x="712" 
d="M569 703h66v-419c0 -182 -114 -309 -279 -309s-279 127 -279 309v419h67v-418c0 -141 83 -250 212 -250c128 0 213 103 213 250v418zM265 903c85 0 111 -84 183 -84c34 0 65 17 69 48h38v-27c-19 -45 -60 -66 -107 -66c-94 0 -113 83 -185 83c-36 0 -63 -19 -67 -47h-38
v27c19 45 58 66 107 66z" />
    <glyph glyph-name="utilde" unicode="&#x169;" 
d="M284 -20c-130 0 -218 92 -218 225v298h62v-288c0 -105 65 -178 162 -178c95 0 163 69 163 169v297h62v-503h-62v76c-32 -60 -93 -96 -169 -96zM205 701c85 0 111 -84 183 -84c34 0 65 17 69 48h38v-27c-19 -45 -60 -66 -107 -66c-94 0 -113 83 -185 83
c-36 0 -63 -19 -67 -47h-38v27c19 45 58 66 107 66z" />
    <glyph glyph-name="Umacron" unicode="&#x16a;" horiz-adv-x="712" 
d="M569 703h66v-419c0 -182 -114 -309 -279 -309s-279 127 -279 309v419h67v-418c0 -141 83 -250 212 -250c128 0 213 103 213 250v418zM205 816h302v-46h-302v46z" />
    <glyph glyph-name="umacron" unicode="&#x16b;" 
d="M284 -20c-130 0 -218 92 -218 225v298h62v-288c0 -105 65 -178 162 -178c95 0 163 69 163 169v297h62v-503h-62v76c-32 -60 -93 -96 -169 -96zM140 641h303v-46h-303v46z" />
    <glyph glyph-name="Ubreve" unicode="&#x16c;" horiz-adv-x="712" 
d="M569 703h66v-419c0 -182 -114 -309 -279 -309s-279 127 -279 309v419h67v-418c0 -141 83 -250 212 -250c128 0 213 103 213 250v418zM356 760c-68 0 -120 46 -128 115v28h45c0 -60 34 -100 83 -101c50 0 84 41 84 101h44v-28c-8 -69 -59 -115 -128 -115z" />
    <glyph glyph-name="ubreve" unicode="&#x16d;" 
d="M284 -20c-130 0 -218 92 -218 225v298h62v-288c0 -105 65 -178 162 -178c95 0 163 69 163 169v297h62v-503h-62v76c-32 -60 -93 -96 -169 -96zM292 560c-70 0 -121 54 -129 135v28h46c0 -72 32 -120 83 -120c49 0 82 48 82 120h46v-28c-9 -81 -59 -135 -128 -135z" />
    <glyph glyph-name="Uring" unicode="&#x16e;" horiz-adv-x="712" 
d="M569 703h66v-419c0 -182 -114 -309 -279 -309s-279 127 -279 309v419h67v-418c0 -141 83 -250 212 -250c128 0 213 103 213 250v418zM245 854c0 57 46 98 111 98s111 -41 111 -98s-46 -98 -111 -98s-111 41 -111 98zM290 854c0 -33 27 -57 66 -57s67 24 67 57
s-28 56 -67 56s-66 -23 -66 -56z" />
    <glyph glyph-name="uring" unicode="&#x16f;" 
d="M284 -20c-130 0 -218 92 -218 225v298h62v-288c0 -105 65 -178 162 -178c95 0 163 69 163 169v297h62v-503h-62v76c-32 -60 -93 -96 -169 -96zM180 668c0 63 46 108 112 108c65 0 110 -45 110 -108s-45 -108 -110 -108c-66 0 -112 45 -112 108zM225 668
c0 -39 27 -67 67 -67c38 0 66 28 66 67s-28 67 -66 67c-40 0 -68 -28 -67 -67z" />
    <glyph glyph-name="Uhungarumlaut" unicode="&#x170;" horiz-adv-x="712" 
d="M569 703h66v-419c0 -182 -114 -309 -279 -309s-279 127 -279 309v419h67v-418c0 -141 83 -250 212 -250c128 0 213 103 213 250v418zM235 770v25l108 122h43v-27l-112 -120h-39zM386 770v25l111 122h43v-27l-115 -120h-39z" />
    <glyph glyph-name="uhungarumlaut" unicode="&#x171;" 
d="M284 -20c-130 0 -218 92 -218 225v298h62v-288c0 -105 65 -178 162 -178c95 0 163 69 163 169v297h62v-503h-62v76c-32 -60 -93 -96 -169 -96zM170 570v25l108 155h44v-27l-114 -153h-38zM322 570v25l112 155h42v-27l-117 -153h-37z" />
    <glyph glyph-name="Uogonek" unicode="&#x172;" horiz-adv-x="712" 
d="M569 703h66v-419c0 -161 -89 -279 -224 -304c-46 -22 -58 -49 -58 -78c0 -69 70 -124 172 -137v-35h-49c-97 20 -167 87 -167 162c0 34 14 62 42 83c-163 3 -274 129 -274 309v419h67v-418c0 -141 83 -250 212 -250c128 0 213 103 213 250v418z" />
    <glyph glyph-name="uogonek" unicode="&#x173;" horiz-adv-x="594" 
d="M284 -20c-130 0 -218 92 -218 225v298h62v-288c0 -105 65 -178 162 -178c95 0 163 69 163 169v297h62v-503h-6c-96 -23 -118 -60 -118 -98c0 -69 70 -124 172 -137v-35h-49c-97 20 -167 87 -167 162c0 54 38 95 106 114v70c-32 -60 -93 -96 -169 -96z" />
    <glyph glyph-name="Wcircumflex" unicode="&#x174;" horiz-adv-x="1195" 
d="M1149 703v-39l-237 -664h-91l-223 618l-223 -618h-92l-237 664v39h57l228 -638l231 638h72l231 -638l228 638h56zM460 812l103 118h69l103 -118v-25h-37l-100 112l-100 -112h-38v25z" />
    <glyph glyph-name="wcircumflex" unicode="&#x175;" horiz-adv-x="885" 
d="M83 503l167 -439l160 439h63l163 -439l167 439h52v-33l-179 -470h-78l-156 432l-156 -432h-78l-179 470v33h54zM305 612l103 138h69l104 -138v-25h-39l-99 131l-101 -131h-37v25z" />
    <glyph glyph-name="Ycircumflex" unicode="&#x176;" horiz-adv-x="639" 
d="M87 703l233 -384l232 384h53v-38l-251 -408v-257h-67v257l-253 408v38h53zM182 812l103 118h69l104 -118v-25h-38l-100 112l-99 -112h-39v25z" />
    <glyph glyph-name="ycircumflex" unicode="&#x177;" horiz-adv-x="545" 
d="M56 -162c18 -5 42 -9 56 -9c62 0 103 69 148 173l-231 471v30h54l207 -425l172 425h53v-30l-194 -478c-45 -109 -104 -217 -201 -217c-19 0 -47 4 -64 10v50zM143 612l103 138h69l104 -138v-25h-39l-99 131l-101 -131h-37v25z" />
    <glyph glyph-name="Ydieresis" unicode="&#x178;" horiz-adv-x="639" 
d="M87 703l233 -384l232 384h53v-38l-251 -408v-257h-67v257l-253 408v38h53zM158 805c0 26 19 44 46 44c26 0 45 -18 45 -44c0 -27 -19 -45 -45 -45c-27 0 -46 18 -46 45zM391 805c0 26 18 44 45 44s45 -18 45 -44c0 -27 -18 -45 -45 -45s-45 18 -45 45z" />
    <glyph glyph-name="Zacute" unicode="&#x179;" horiz-adv-x="687" 
d="M54 703h580v-44l-495 -602h505v-57h-600v44l497 602h-487v57zM316 770v25l120 118h43v-26l-125 -117h-38z" />
    <glyph glyph-name="zacute" unicode="&#x17a;" horiz-adv-x="517" 
d="M44 503h429v-40l-342 -406h352v-57h-449v41l345 405h-335v57zM230 570v25l120 138h43v-26l-124 -137h-39z" />
    <glyph glyph-name="Zdotaccent" unicode="&#x17b;" horiz-adv-x="687" 
d="M54 703h580v-44l-495 -602h505v-57h-600v44l497 602h-487v57zM303 803c0 26 18 42 45 42s45 -16 45 -42s-18 -43 -45 -43s-46 17 -45 43z" />
    <glyph glyph-name="zdotaccent" unicode="&#x17c;" horiz-adv-x="517" 
d="M44 503h429v-40l-342 -406h352v-57h-449v41l345 405h-335v57zM213 605c0 26 19 44 46 44c26 0 45 -18 45 -44c0 -27 -19 -45 -45 -45c-27 0 -46 18 -46 45z" />
    <glyph glyph-name="Zcaron" unicode="&#x17d;" horiz-adv-x="687" 
d="M54 703h580v-44l-495 -602h505v-57h-600v44l497 602h-487v57zM309 770l-103 118v25h38l100 -112l100 112h38v-25l-104 -118h-69z" />
    <glyph glyph-name="zcaron" unicode="&#x17e;" horiz-adv-x="517" 
d="M44 503h429v-40l-342 -406h352v-57h-449v41l345 405h-335v57zM224 570l-104 138v25h38l101 -131l99 131h39v-25l-104 -138h-69z" />
    <glyph glyph-name="Aacutering" unicode="&#x1fa;" horiz-adv-x="681" 
d="M293 703h95l253 -664v-39h-57l-57 149h-374l-57 -149h-57v39zM341 643l-170 -440h339zM207 860c0 70 59 120 141 120c83 0 143 -50 143 -120s-60 -120 -143 -120c-82 0 -141 50 -141 120zM249 860c0 -47 42 -80 99 -80c58 0 99 33 99 80s-41 80 -99 80
c-57 0 -99 -33 -99 -80zM312 990v25l121 105h42v-26l-130 -104h-33z" />
    <glyph glyph-name="aacutering" unicode="&#x1fb;" horiz-adv-x="641" 
d="M313 523c156 0 267 -113 267 -271v-252h-59v96c-40 -72 -115 -116 -208 -116c-157 0 -266 111 -266 272c0 158 110 271 266 271zM313 466c-119 0 -204 -90 -204 -214c0 -125 85 -215 204 -215s205 90 205 215c0 124 -86 214 -205 214zM180 670c0 70 56 120 133 120
c78 0 135 -50 135 -120s-57 -120 -135 -120c-77 0 -133 50 -133 120zM223 670c0 -47 38 -80 90 -80c53 0 90 33 90 80s-37 80 -90 80c-52 0 -90 -33 -90 -80zM268 800v25l116 105h39v-27l-122 -103h-33z" />
    <glyph glyph-name="AEacute" unicode="&#x1fc;" horiz-adv-x="905" 
d="M435 149h-262l-78 -149h-56v36l349 667h458v-56l-349 -1v-263h309v-53h-309v-273h359v-57h-421v149zM435 201v452l-236 -452h236zM477 770v25l121 118h42v-26l-124 -117h-39z" />
    <glyph glyph-name="aeacute" unicode="&#x1fd;" horiz-adv-x="1080" 
d="M518 503h45v-103c37 75 108 123 207 123c154 0 263 -110 264 -264c0 -20 -2 -46 -5 -64h-449c23 -95 96 -158 191 -158c76 0 151 39 178 93h53v-28c-36 -71 -133 -122 -232 -122c-98 0 -170 50 -207 130v-110h-45v100c-44 -74 -121 -120 -214 -120
c-149 0 -257 114 -257 272c0 157 108 271 257 271c93 0 170 -46 214 -120v100zM518 252c0 126 -86 217 -205 217s-204 -91 -204 -217s86 -218 204 -218c116 0 205 86 205 218zM573 260v-12h397c12 122 -77 218 -201 218c-114 0 -196 -87 -196 -206zM518 570v25l119 138h43
v-26l-124 -137h-38z" />
    <glyph glyph-name="Oslashacute" unicode="&#x1fe;" horiz-adv-x="845" 
d="M55 352c0 219 153 376 368 376c57 0 111 -11 158 -32l83 164h42v-25l-82 -162c103 -64 167 -180 167 -321c0 -220 -153 -377 -368 -377c-50 0 -96 9 -138 25l-70 -140h-42v25l67 134c-114 61 -185 182 -185 333zM121 352c0 -124 57 -224 148 -277l284 565
c-39 18 -83 28 -130 28c-176 0 -302 -133 -302 -316zM724 352c0 114 -50 209 -129 264l-283 -562c34 -12 71 -19 111 -19c174 0 301 132 301 317zM385 780v24l120 119h43v-27l-125 -116h-38z" />
    <glyph glyph-name="oslashacute" unicode="&#x1ff;" horiz-adv-x="630" 
d="M147 -57l34 69c-83 44 -134 131 -134 240c0 158 111 271 268 271c41 0 79 -8 113 -22l50 99h39v-23l-50 -98c72 -47 116 -128 116 -227c0 -159 -112 -272 -268 -272c-33 0 -64 5 -93 15l-37 -75h-38v23zM104 252c0 -86 39 -155 101 -192l199 394c-26 12 -57 19 -89 19
c-123 0 -211 -93 -211 -221zM525 252c0 76 -31 140 -82 179l-197 -390c21 -7 44 -10 69 -10c122 0 210 92 210 221zM292 570v25l119 138h44v-26l-124 -137h-39z" />
    <glyph glyph-name="Scommaaccent" unicode="&#x218;" horiz-adv-x="658" 
d="M330 -25c-141 0 -255 76 -278 185v35h61c8 -93 96 -158 214 -160c125 -1 214 66 214 158c1 224 -492 34 -492 323c0 126 106 212 260 212c139 0 250 -68 269 -167v-34h-60c-7 83 -91 141 -206 141c-117 0 -196 -59 -196 -146c0 -226 492 -39 492 -320
c1 -133 -116 -227 -278 -227zM274 -113c0 23 16 40 40 40c28 0 47 -22 47 -54c0 -53 -27 -105 -64 -124h-28v16c25 9 43 42 43 81c-23 -1 -38 16 -38 41z" />
    <glyph glyph-name="scommaaccent" unicode="&#x219;" horiz-adv-x="493" 
d="M249 -20c-99 0 -184 55 -207 133v32h56c12 -64 73 -108 152 -108c81 0 143 44 143 107c0 133 -354 27 -354 231c0 87 81 148 200 148c99 0 179 -41 192 -100v-30h-54c-4 44 -60 73 -137 73c-86 0 -140 -37 -140 -91c0 -133 354 -34 353 -228c0 -99 -88 -167 -204 -167z
M207 -113c0 23 17 40 40 40c28 0 47 -22 47 -54c0 -53 -27 -105 -64 -124h-28v16c25 9 44 42 44 81c-23 -1 -39 16 -39 41z" />
    <glyph glyph-name="circumflex" unicode="&#x2c6;" horiz-adv-x="369" 
d="M47 612l103 138h69l104 -138v-25h-39l-99 131l-101 -131h-37v25z" />
    <glyph glyph-name="caron" unicode="&#x2c7;" horiz-adv-x="370" 
d="M150 570l-103 138v25h37l101 -131l99 131h39v-25l-104 -138h-69z" />
    <glyph glyph-name="breve" unicode="&#x2d8;" horiz-adv-x="350" 
d="M175 570c-69 0 -121 54 -128 135v28h45c0 -72 33 -120 83 -120c49 0 83 48 83 120h45v-28c-8 -81 -59 -135 -128 -135z" />
    <glyph glyph-name="dotaccent" unicode="&#x2d9;" horiz-adv-x="184" 
d="M47 605c0 26 18 45 45 45s45 -19 45 -45s-18 -45 -45 -45s-45 19 -45 45z" />
    <glyph glyph-name="ring" unicode="&#x2da;" horiz-adv-x="316" 
d="M47 659c0 63 46 108 111 108s111 -45 111 -108s-46 -108 -111 -108s-111 45 -111 108zM91 659c0 -39 28 -67 67 -67s67 28 67 67s-28 66 -67 66s-67 -27 -67 -66z" />
    <glyph glyph-name="ogonek" unicode="&#x2db;" horiz-adv-x="310" 
d="M218 14v-14c-96 -23 -118 -60 -118 -98c0 -69 70 -124 172 -137v-35h-49c-97 20 -167 87 -167 162c0 62 51 107 140 122h22z" />
    <glyph glyph-name="tilde" unicode="&#x2dc;" horiz-adv-x="517" 
d="M167 651c85 0 111 -84 183 -84c34 0 65 17 69 48h38v-27c-19 -45 -60 -66 -107 -66c-94 0 -113 83 -185 83c-36 0 -63 -19 -67 -47h-38v27c19 45 58 66 107 66z" />
    <glyph glyph-name="hungarumlaut" unicode="&#x2dd;" horiz-adv-x="399" 
d="M47 570v25l108 155h43v-27l-114 -153h-37zM198 570v25l112 155h42v-27l-116 -153h-38z" />
    <glyph glyph-name="Wgrave" unicode="&#x1e80;" horiz-adv-x="1195" 
d="M1149 703v-39l-237 -664h-91l-223 618l-223 -618h-92l-237 664v39h57l228 -638l231 638h72l231 -638l228 638h56zM626 795v-25h-39l-124 117v26h43z" />
    <glyph glyph-name="wgrave" unicode="&#x1e81;" horiz-adv-x="885" 
d="M83 503l167 -439l160 439h63l163 -439l167 439h52v-33l-179 -470h-78l-156 432l-156 -432h-78l-179 470v33h54zM470 595v-25h-39l-124 137v26h43z" />
    <glyph glyph-name="Wacute" unicode="&#x1e82;" horiz-adv-x="1195" 
d="M1149 703v-39l-237 -664h-91l-223 618l-223 -618h-92l-237 664v39h57l228 -638l231 638h72l231 -638l228 638h56zM570 770v25l120 118h42v-26l-124 -117h-38z" />
    <glyph glyph-name="wacute" unicode="&#x1e83;" horiz-adv-x="885" 
d="M83 503l167 -439l160 439h63l163 -439l167 439h52v-33l-179 -470h-78l-156 432l-156 -432h-78l-179 470v33h54zM414 570v25l119 138h43v-26l-124 -137h-38z" />
    <glyph glyph-name="Wdieresis" unicode="&#x1e84;" horiz-adv-x="1195" 
d="M1149 703v-39l-237 -664h-91l-223 618l-223 -618h-92l-237 664v39h57l228 -638l231 638h72l231 -638l228 638h56zM436 805c0 26 19 44 45 44c27 0 46 -18 46 -44c0 -27 -19 -45 -46 -45c-26 0 -45 18 -45 45zM669 805c0 26 18 44 45 44s45 -18 45 -44
c0 -27 -18 -45 -45 -45s-45 18 -45 45z" />
    <glyph glyph-name="wdieresis" unicode="&#x1e85;" horiz-adv-x="885" 
d="M83 503l167 -439l160 439h63l163 -439l167 439h52v-33l-179 -470h-78l-156 432l-156 -432h-78l-179 470v33h54zM281 647c0 26 18 44 45 44c26 0 45 -18 45 -44c0 -27 -19 -45 -45 -45c-27 0 -45 18 -45 45zM514 647c0 26 18 44 45 44c26 0 45 -18 45 -44
c0 -27 -19 -45 -45 -45c-27 0 -45 18 -45 45z" />
    <glyph glyph-name="uni1E9E" unicode="&#x1e9e;" horiz-adv-x="705" 
d="M144 0h-67v491c0 133 111 229 267 229c142 0 245 -82 246 -188c1 -79 -60 -141 -148 -155c122 -17 208 -96 208 -203c1 -112 -86 -199 -217 -199c-82 0 -166 30 -191 72v56h41c8 -41 70 -69 138 -69c101 1 163 65 162 146c0 100 -108 166 -256 166h-36v58h40
c111 0 192 49 192 124c0 74 -76 132 -180 132c-117 0 -199 -71 -199 -168v-492z" />
    <glyph glyph-name="Ygrave" unicode="&#x1ef2;" horiz-adv-x="639" 
d="M87 703l233 -384l232 384h53v-38l-251 -408v-257h-67v257l-253 408v38h53zM333 795v-25h-38l-125 117v26h43z" />
    <glyph glyph-name="ygrave" unicode="&#x1ef3;" horiz-adv-x="545" 
d="M56 -162c18 -5 42 -9 56 -9c62 0 103 69 148 173l-231 471v30h54l207 -425l172 425h53v-30l-194 -478c-45 -109 -104 -217 -201 -217c-19 0 -47 4 -64 10v50zM289 595v-25h-39l-124 137v26h43z" />
    <glyph glyph-name="endash" unicode="&#x2013;" horiz-adv-x="723" 
d="M77 341h570v-57h-570v57z" />
    <glyph glyph-name="emdash" unicode="&#x2014;" horiz-adv-x="923" 
d="M77 284v57h770v-57h-770z" />
    <glyph glyph-name="quoteleft" unicode="&#x2018;" horiz-adv-x="193" 
d="M142 546c0 -27 -19 -44 -45 -44c-30 0 -50 24 -50 61c0 64 28 123 67 140h33v-16c-28 -13 -48 -54 -48 -97c25 0 43 -18 43 -44z" />
    <glyph glyph-name="quoteright" unicode="&#x2019;" horiz-adv-x="193" 
d="M52 673c0 27 18 45 45 45c30 0 50 -24 50 -61c0 -64 -29 -124 -67 -141h-33v17c28 13 48 53 48 96c-26 0 -43 18 -43 44z" />
    <glyph glyph-name="quotesinglbase" unicode="&#x201a;" horiz-adv-x="193" 
d="M52 33c0 26 18 44 45 44c30 0 50 -24 50 -60c0 -65 -29 -124 -67 -141h-33v16c28 13 48 54 48 96c-26 0 -43 18 -43 45z" />
    <glyph glyph-name="quotedblleft" unicode="&#x201c;" horiz-adv-x="346" 
d="M142 546c0 -27 -19 -44 -45 -44c-30 0 -50 24 -50 61c0 64 28 123 67 140h33v-16c-28 -13 -48 -54 -48 -97c25 0 43 -18 43 -44zM294 546c0 -27 -18 -44 -44 -44c-30 0 -50 24 -50 61c0 64 28 123 67 140h32v-16c-27 -13 -47 -54 -47 -97c25 0 42 -18 42 -44z" />
    <glyph glyph-name="quotedblright" unicode="&#x201d;" horiz-adv-x="346" 
d="M52 673c0 27 18 45 45 45c30 0 50 -24 50 -61c0 -64 -29 -124 -67 -141h-33v17c28 13 48 53 48 96c-26 0 -43 18 -43 44zM205 674c0 27 19 44 44 44c30 1 50 -24 50 -60c0 -65 -28 -124 -67 -141h-32v16c27 13 48 54 48 96c-26 0 -43 18 -43 45z" />
    <glyph glyph-name="quotedblbase" unicode="&#x201e;" horiz-adv-x="347" 
d="M52 33c0 26 18 44 45 44c30 0 50 -24 50 -60c0 -65 -29 -124 -67 -141h-33v16c28 13 48 54 48 96c-26 0 -43 18 -43 45zM206 33c0 26 18 44 44 44c30 0 50 -24 50 -60c0 -65 -29 -124 -67 -141h-33v16c28 13 48 54 48 96c-26 0 -42 18 -42 45z" />
    <glyph glyph-name="bullet" unicode="&#x2022;" horiz-adv-x="197" 
d="M47 310c0 30 21 51 51 51c31 0 52 -21 52 -51s-21 -51 -52 -51c-30 0 -51 21 -51 51z" />
    <glyph glyph-name="ellipsis" unicode="&#x2026;" horiz-adv-x="488" 
d="M47 34c0 26 18 44 45 44s45 -18 45 -44c0 -27 -18 -46 -45 -46s-45 19 -45 46zM198 34c0 26 19 44 45 44c27 0 46 -18 46 -44c0 -27 -19 -46 -46 -46c-26 0 -45 19 -45 46zM350 34c0 26 19 44 45 44c27 0 46 -18 46 -44c0 -27 -19 -46 -46 -46c-26 0 -45 19 -45 46z" />
    <glyph glyph-name="perthousand" unicode="&#x2030;" horiz-adv-x="1430" 
d="M725 223c118 0 197 -79 197 -196c0 -118 -79 -197 -197 -197c-116 0 -195 79 -195 197c0 117 79 196 195 196zM725 171c-85 0 -143 -58 -143 -144s58 -144 143 -144c87 0 145 58 145 144s-58 144 -145 144zM1197 223c117 0 196 -79 196 -196c0 -118 -79 -197 -196 -197
s-197 79 -197 197c0 117 80 196 197 196zM1197 171c-86 0 -144 -58 -144 -144s58 -144 144 -144s144 58 144 144s-58 144 -144 144zM218 -169l481 902h42v-31l-481 -902h-42v31zM233 703c118 0 197 -79 197 -196c0 -118 -79 -197 -197 -197c-117 0 -196 79 -196 197
c0 117 79 196 196 196zM233 650c-86 0 -144 -57 -144 -143c0 -87 58 -145 144 -145s144 58 144 145c0 86 -58 143 -144 143z" />
    <glyph glyph-name="guilsinglleft" unicode="&#x2039;" horiz-adv-x="337" 
d="M253 0l-218 252l218 251h45v-35l-195 -216l195 -217v-35h-45z" />
    <glyph glyph-name="guilsinglright" unicode="&#x203a;" horiz-adv-x="336" 
d="M302 252l-219 -252h-44v35l194 217l-194 216v35h44z" />
    <glyph glyph-name="lira" unicode="&#x20a4;" horiz-adv-x="615" 
d="M371 728c99 0 176 -69 186 -165v-31h-56c0 82 -55 141 -130 141s-129 -63 -129 -150v-138h257v-42h-257c0 -23 -1 -43 -2 -63h259v-42h-269c-14 -112 -50 -166 -96 -187h423v-51h-489v74c48 6 85 47 99 166h-90v40h99c2 19 2 42 2 63h-101v42h101v138
c0 119 81 205 193 205z" />
    <glyph glyph-name="Euro" unicode="&#x20ac;" horiz-adv-x="878" 
d="M490 728c144 0 287 -84 330 -216v-30h-58c-26 109 -140 190 -271 190c-147 0 -260 -89 -294 -224h356v-43h-366c-2 -17 -3 -36 -3 -53c0 -19 1 -37 3 -54h366v-43h-356c34 -134 147 -225 294 -225c129 0 243 77 273 183h56v-31c-40 -120 -177 -207 -328 -207
c-183 0 -326 114 -365 280h-80v43h73c-2 17 -3 35 -3 54c0 18 1 36 3 53h-73v43h80c40 171 184 280 363 280z" />
    <glyph glyph-name="trademark" unicode="&#x2122;" horiz-adv-x="1087" 
d="M17 703h363v-50h-154v-503h-56v503h-153v50zM515 627v-477h-53v553h76l193 -479l192 479h77v-553h-53v477l-193 -477h-46z" />
    <glyph glyph-name="minus" unicode="&#x2212;" horiz-adv-x="523" 
d="M57 284v57h410v-57h-410z" />
    <glyph glyph-name="approxequal" unicode="&#x2248;" horiz-adv-x="178" 
 />
    <glyph glyph-name="notequal" unicode="&#x2260;" horiz-adv-x="623" 
d="M77 413v57h282l65 163h37v-25l-55 -138h141v-57h-164l-78 -198h242v-57h-265l-78 -198h-37v27l68 171h-158v57h180l79 198h-259z" />
    <glyph glyph-name="lessequal" unicode="&#x2264;" horiz-adv-x="422" 
d="M35 47h348v-47h-348v47zM79 317l304 -147v-40h-30l-318 153v66l318 154h30v-41z" />
    <glyph glyph-name="greaterequal" unicode="&#x2265;" horiz-adv-x="422" 
d="M39 47h348v-47h-348v47zM39 170l303 147l-303 145v41h30l318 -154v-66l-318 -153h-30v40z" />
    <glyph glyph-name="commaaccent" unicode="&#xf6c3;" horiz-adv-x="185" 
d="M52 31c0 24 16 40 40 40c28 0 47 -22 47 -53c0 -54 -27 -106 -64 -125h-28v17c25 9 43 42 43 80c-22 0 -38 17 -38 41z" />
    <glyph glyph-name="IJ.alt1" horiz-adv-x="681" 
d="M87 0v703h67v-703h-67zM297 703h307v-496c0 -133 -85 -227 -204 -227c-36 0 -86 8 -125 20v55c40 -10 85 -18 114 -18c86 -1 149 73 149 176v433h-241v57z" />
    <glyph glyph-name="IJacute" horiz-adv-x="670" 
d="M78 0v703h66v-703h-66zM528 703h67v-496c0 -133 -86 -227 -204 -227c-36 0 -86 8 -125 20v55c40 -10 85 -18 114 -18c86 -1 148 73 148 176v490zM95 770v25l120 118h43v-26l-125 -117h-38zM512 770v25l120 118h43v-26l-125 -117h-38z" />
    <glyph glyph-name="IJacute.alt1" horiz-adv-x="695" 
d="M87 0v703h67v-703h-67zM297 703h307v-496c0 -133 -85 -227 -204 -227c-36 0 -86 8 -125 20v55c40 -10 85 -18 114 -18c86 -1 149 73 149 176v433h-241v57zM84 770v25l120 118h42v-26l-124 -117h-38zM523 770v25l120 118h43v-26l-124 -117h-39z" />
    <glyph glyph-name="J.alt1" horiz-adv-x="435" 
d="M51 703h307v-496c0 -133 -85 -227 -204 -227c-36 0 -86 8 -125 20v55c39 -10 85 -18 114 -18c87 -1 149 73 149 176v433h-241v57z" />
    <glyph glyph-name="a.alt1" horiz-adv-x="657" 
d="M518 503h62v-503h-62v96c-44 -72 -120 -116 -211 -116c-151 0 -260 114 -260 272c0 157 109 271 260 271c91 0 167 -45 211 -117v97zM313 37c123 0 205 92 205 214c0 120 -77 215 -205 215c-118 0 -204 -90 -204 -214s86 -215 204 -215z" />
    <glyph glyph-name="aacute.alt1" horiz-adv-x="657" 
d="M518 503h62v-503h-62v96c-44 -72 -120 -116 -211 -116c-151 0 -260 114 -260 272c0 157 109 271 260 271c91 0 167 -45 211 -117v97zM313 37c123 0 205 92 205 214c0 120 -77 215 -205 215c-118 0 -204 -90 -204 -214s86 -215 204 -215zM324 570v25l119 138h44v-26
l-125 -137h-38z" />
    <glyph glyph-name="aacutering.alt1" horiz-adv-x="657" 
d="M518 503h62v-503h-62v96c-44 -72 -120 -116 -211 -116c-151 0 -260 114 -260 272c0 157 109 271 260 271c91 0 167 -45 211 -117v97zM313 37c123 0 205 92 205 214c0 120 -77 215 -205 215c-118 0 -204 -90 -204 -214s86 -215 204 -215zM218 670c0 70 56 120 133 120
c78 0 135 -50 135 -120s-57 -120 -135 -120c-77 0 -133 50 -133 120zM260 670c0 -47 39 -80 91 -80s90 33 90 80s-38 80 -90 80s-91 -33 -91 -80zM306 800v25l115 105h39v-27l-121 -103h-33z" />
    <glyph glyph-name="abreve.alt1" horiz-adv-x="657" 
d="M518 503h62v-503h-62v96c-44 -72 -120 -116 -211 -116c-151 0 -260 114 -260 272c0 157 109 271 260 271c91 0 167 -45 211 -117v97zM313 37c123 0 205 92 205 214c0 120 -77 215 -205 215c-118 0 -204 -90 -204 -214s86 -215 204 -215zM323 560c-69 0 -120 54 -128 135
v28h45c0 -72 33 -120 83 -120s83 48 83 120h45v-28c-7 -81 -59 -135 -128 -135z" />
    <glyph glyph-name="acircumflex.alt1" horiz-adv-x="657" 
d="M518 503h62v-503h-62v96c-44 -72 -120 -116 -211 -116c-151 0 -260 114 -260 272c0 157 109 271 260 271c91 0 167 -45 211 -117v97zM313 37c123 0 205 92 205 214c0 120 -77 215 -205 215c-118 0 -204 -90 -204 -214s86 -215 204 -215zM189 612l104 138h69l103 -138v-25
h-38l-100 131l-100 -131h-38v25z" />
    <glyph glyph-name="acute.case" horiz-adv-x="257" 
d="M47 590v25l120 118h43v-26l-125 -117h-38z" />
    <glyph glyph-name="adieresis.alt1" horiz-adv-x="657" 
d="M518 503h62v-503h-62v96c-44 -72 -120 -116 -211 -116c-151 0 -260 114 -260 272c0 157 109 271 260 271c91 0 167 -45 211 -117v97zM313 37c123 0 205 92 205 214c0 120 -77 215 -205 215c-118 0 -204 -90 -204 -214s86 -215 204 -215zM162 647c0 26 18 44 45 44
s45 -18 45 -44c0 -27 -18 -45 -45 -45s-45 18 -45 45zM395 647c0 26 19 44 45 44c27 0 45 -18 45 -44c0 -27 -18 -45 -45 -45c-26 0 -45 18 -45 45z" />
    <glyph glyph-name="agrave.alt1" horiz-adv-x="656" 
d="M518 503h62v-503h-62v96c-44 -72 -120 -116 -211 -116c-151 0 -260 114 -260 272c0 157 109 271 260 271c91 0 167 -45 211 -117v97zM313 37c123 0 205 92 205 214c0 120 -77 215 -205 215c-118 0 -204 -90 -204 -214s86 -215 204 -215zM380 595v-25h-39l-124 137v26h43z
" />
    <glyph glyph-name="amacron.alt1" horiz-adv-x="656" 
d="M518 503h62v-503h-62v96c-44 -72 -120 -116 -211 -116c-151 0 -260 114 -260 272c0 157 109 271 260 271c91 0 167 -45 211 -117v97zM313 37c123 0 205 92 205 214c0 120 -77 215 -205 215c-118 0 -204 -90 -204 -214s86 -215 204 -215zM160 641h303v-46h-303v46z" />
    <glyph glyph-name="aogonek.alt1" horiz-adv-x="684" 
d="M518 503h62v-503h-28c-96 -23 -118 -60 -118 -98c0 -69 70 -124 172 -137v-35h-49c-97 20 -167 87 -167 162c0 59 46 103 128 119v85c-44 -72 -120 -116 -211 -116c-151 0 -260 114 -260 272c0 157 109 271 260 271c91 0 167 -45 211 -117v97zM313 37
c123 0 205 92 205 214c0 120 -77 215 -205 215c-118 0 -204 -90 -204 -214s86 -215 204 -215z" />
    <glyph glyph-name="aring.alt1" horiz-adv-x="657" 
d="M518 503h62v-503h-62v96c-44 -72 -120 -116 -211 -116c-151 0 -260 114 -260 272c0 157 109 271 260 271c91 0 167 -45 211 -117v97zM313 37c123 0 205 92 205 214c0 120 -77 215 -205 215c-118 0 -204 -90 -204 -214s86 -215 204 -215zM227 668c0 63 47 108 112 108
s111 -45 111 -108s-46 -108 -111 -108s-112 45 -112 108zM272 668c0 -39 28 -67 67 -67s67 28 67 67s-28 67 -67 67s-67 -28 -67 -67z" />
    <glyph glyph-name="atilde.alt1" horiz-adv-x="657" 
d="M518 503h62v-503h-62v96c-44 -72 -120 -116 -211 -116c-151 0 -260 114 -260 272c0 157 109 271 260 271c91 0 167 -45 211 -117v97zM313 37c123 0 205 92 205 214c0 120 -77 215 -205 215c-118 0 -204 -90 -204 -214s86 -215 204 -215zM252 701c85 0 111 -84 183 -84
c34 0 65 17 69 48h38v-27c-19 -45 -60 -66 -107 -66c-94 0 -113 83 -185 83c-36 0 -63 -19 -67 -47h-38v27c19 45 58 66 107 66z" />
    <glyph glyph-name="b.alt1" horiz-adv-x="655" 
d="M348 523c151 0 260 -114 260 -271c0 -158 -110 -272 -260 -272c-92 0 -168 46 -211 119v-99h-60v733h62v-327c42 72 118 117 209 117zM342 463c-119 0 -205 -89 -205 -211c0 -123 86 -212 205 -212c117 0 204 88 204 212c0 122 -86 211 -204 211z" />
    <glyph glyph-name="breve.case" horiz-adv-x="350" 
d="M175 590c-69 0 -120 46 -128 115v28h44c0 -60 35 -100 84 -101c49 0 83 41 84 101h43l1 -28c-8 -69 -59 -115 -128 -115z" />
    <glyph glyph-name="caron.case" horiz-adv-x="370" 
d="M150 590l-103 118v25h38l100 -112l100 112h38v-25l-103 -118h-70z" />
    <glyph glyph-name="circumflex.case" horiz-adv-x="370" 
d="M47 632l103 118h70l103 -118v-25h-38l-100 112l-100 -112h-38v25z" />
    <glyph glyph-name="d.alt1" horiz-adv-x="655" 
d="M307 523c91 0 167 -45 209 -117v327h62v-733h-60v99c-43 -73 -119 -119 -211 -119c-150 0 -260 114 -260 272c0 157 109 271 260 271zM313 463c-118 0 -204 -89 -204 -211c0 -124 87 -212 204 -212c119 0 205 89 205 212c0 122 -86 211 -205 211z" />
    <glyph glyph-name="dcaron.alt1" horiz-adv-x="693" 
d="M313 463c-118 0 -204 -89 -204 -211c0 -124 87 -212 204 -212c119 0 205 89 205 212c0 122 -86 211 -205 211zM307 523c91 0 167 -45 209 -117v327h62v-733h-60v99c-43 -73 -119 -119 -211 -119c-150 0 -260 114 -260 272c0 157 109 271 260 271zM625 703
c0 24 16 40 40 40c27 0 47 -21 47 -52c0 -54 -27 -107 -64 -125h-28v17c24 8 43 42 43 80c-23 0 -38 17 -38 40z" />
    <glyph glyph-name="dcroat.alt1" horiz-adv-x="691" 
d="M307 523c91 0 166 -45 209 -117v192h-229v54h229v81h62v-81h85v-54h-85v-598h-60v99c-43 -73 -119 -119 -211 -119c-150 0 -260 114 -260 272c0 157 109 271 260 271zM313 463c-118 0 -204 -89 -204 -211c0 -124 86 -212 204 -212c119 0 205 89 205 212
c0 122 -86 211 -205 211z" />
    <glyph glyph-name="dieresis.case" horiz-adv-x="417" 
d="M47 605c0 26 18 44 45 44s45 -18 45 -44c0 -27 -18 -45 -45 -45s-45 18 -45 45zM280 605c0 26 18 44 45 44s45 -18 45 -44c0 -27 -18 -45 -45 -45s-45 18 -45 45z" />
    <glyph glyph-name="dotaccent.case" horiz-adv-x="183" 
d="M47 603c1 26 18 42 44 42c28 0 46 -16 46 -42s-18 -43 -45 -43c-28 0 -46 17 -45 43z" />
    <glyph glyph-name="g.alt1" horiz-adv-x="655" 
d="M47 252c0 156 109 270 261 270c92 1 169 -46 211 -121v102h59v-505c0 -144 -108 -248 -256 -248c-133 0 -244 81 -264 193v27h59c12 -93 97 -160 203 -160c114 0 196 79 196 188v102c-43 -72 -117 -116 -208 -116c-152 0 -261 112 -261 268zM313 466
c-119 0 -206 -90 -204 -214c1 -123 87 -211 204 -211c119 0 206 89 205 211c-1 124 -87 214 -205 214z" />
    <glyph glyph-name="gbreve.alt1" horiz-adv-x="655" 
d="M47 252c0 156 109 270 261 270c92 1 169 -46 211 -121v102h59v-505c0 -144 -108 -248 -256 -248c-133 0 -244 81 -264 193v27h59c12 -93 97 -160 203 -160c114 0 196 79 196 188v102c-43 -72 -117 -116 -208 -116c-152 0 -261 112 -261 268zM313 466
c-119 0 -206 -90 -204 -214c1 -123 87 -211 204 -211c119 0 206 89 205 211c-1 124 -87 214 -205 214zM358 560c-68 0 -120 54 -128 135v28h46c0 -72 33 -120 82 -120c50 0 83 48 83 120h46v-28c-8 -81 -59 -135 -129 -135z" />
    <glyph glyph-name="gcommaaccent.alt1" horiz-adv-x="655" 
d="M47 252c0 156 109 270 261 270c92 1 169 -46 211 -121v102h59v-505c0 -144 -108 -248 -256 -248c-133 0 -244 81 -264 193v27h59c12 -93 97 -160 203 -160c114 0 196 79 196 188v102c-43 -72 -117 -116 -208 -116c-152 0 -261 112 -261 268zM313 466
c-119 0 -206 -90 -204 -214c1 -123 87 -211 204 -211c119 0 206 89 205 211c-1 124 -87 214 -205 214zM383 600c0 -24 -16 -39 -40 -39c-28 0 -47 21 -47 53c0 53 27 105 64 124h28v-16c-25 -9 -43 -43 -43 -81c22 0 38 -17 38 -41z" />
    <glyph glyph-name="gdotaccent.alt1" horiz-adv-x="655" 
d="M47 252c0 156 109 270 261 270c92 1 169 -46 211 -121v102h59v-505c0 -144 -108 -248 -256 -248c-133 0 -244 81 -264 193v27h59c12 -93 97 -160 203 -160c114 0 196 79 196 188v102c-43 -72 -117 -116 -208 -116c-152 0 -261 112 -261 268zM313 466
c-119 0 -206 -90 -204 -214c1 -123 87 -211 204 -211c119 0 206 89 205 211c-1 124 -87 214 -205 214zM293 605c0 26 19 44 45 44c27 0 46 -18 46 -44c0 -27 -19 -45 -46 -45c-26 0 -45 18 -45 45z" />
    <glyph glyph-name="grave.case" horiz-adv-x="257" 
d="M210 615v-25h-39l-124 117v26h42z" />
    <glyph glyph-name="hungarumlaut.case" horiz-adv-x="399" 
d="M47 590v25l108 118h43v-26l-113 -117h-38zM198 590v25l111 118h43v-26l-116 -117h-38z" />
    <glyph glyph-name="ijacute" horiz-adv-x="454" 
d="M72 0v503h62v-503h-62zM305 503h62v-587c0 -81 -50 -136 -126 -136c-28 0 -60 5 -81 12v50c20 -6 47 -10 68 -9c47 0 77 34 77 84v586zM79 560v25l119 138h43v-26l-124 -137h-38zM313 560v25l119 138h44v-26l-125 -137h-38z" />
    <glyph glyph-name="p.alt1" horiz-adv-x="654" 
d="M348 -20c-91 0 -167 45 -209 117v-327h-62v733h60v-99c43 73 119 119 211 119c150 0 260 -114 260 -272c0 -157 -109 -271 -260 -271zM342 40c118 0 204 89 204 211c0 124 -87 212 -204 212c-119 0 -205 -89 -205 -212c0 -122 86 -211 205 -211z" />
    <glyph glyph-name="q.alt1" horiz-adv-x="655" 
d="M307 -20c-151 0 -260 114 -260 271c0 158 110 272 260 272c92 0 168 -46 211 -119v99h60v-733h-62v327c-42 -72 -118 -117 -209 -117zM313 40c119 0 205 89 205 211c0 123 -86 212 -205 212c-117 0 -204 -88 -204 -212c0 -122 86 -211 204 -211z" />
    <glyph glyph-name="ring.case" horiz-adv-x="316" 
d="M47 649c0 57 46 98 111 98s111 -41 111 -98s-46 -98 -111 -98s-111 41 -111 98zM91 649c0 -33 28 -57 67 -57s67 24 67 57s-28 56 -67 56s-67 -23 -67 -56z" />
    <glyph glyph-name="t.alt1" horiz-adv-x="354" 
d="M30 451v52h85v101l62 16v-117h134v-52h-134v-329c0 -50 30 -84 76 -85c20 0 47 4 67 10v-55c-21 -7 -53 -12 -80 -12c-75 0 -125 56 -125 137v334h-85z" />
    <glyph glyph-name="tcaron.alt1" horiz-adv-x="365" 
d="M30 451v52h85v101l62 16v-117h134v-52h-134v-329c0 -50 30 -84 76 -85c20 0 47 4 67 10v-55c-21 -7 -53 -12 -80 -12c-75 0 -125 56 -125 137v334h-85zM237 671c0 23 17 39 41 39c27 0 46 -21 46 -53c0 -54 -27 -106 -64 -124h-28v16c25 9 43 43 43 81
c-22 0 -38 17 -38 41z" />
    <glyph glyph-name="tcommaaccent.alt1" horiz-adv-x="354" 
d="M30 451v52h85v101l62 16v-117h134v-52h-134v-329c0 -50 30 -84 76 -85c20 0 47 4 67 10v-55c-21 -7 -53 -12 -80 -12c-75 0 -125 56 -125 137v334h-85zM159 -113c0 23 16 40 40 40c28 0 47 -22 47 -54c0 -53 -27 -105 -64 -124h-28v16c25 9 43 43 43 81
c-22 0 -38 16 -38 41z" />
    <glyph glyph-name="tilde.case" horiz-adv-x="517" 
d="M167 651c85 0 111 -84 183 -84c34 0 65 17 69 48h38v-27c-19 -45 -60 -66 -107 -66c-94 0 -113 83 -185 83c-36 0 -63 -19 -67 -47h-38v27c19 45 58 66 107 66z" />
    </font>
</defs>
</svg>
